<?xml version="1.0" encoding="UTF-8" standalone="no"?>
<svg
   xmlns:dc="http://purl.org/dc/elements/1.1/"
   xmlns:cc="http://creativecommons.org/ns#"
   xmlns:rdf="http://www.w3.org/1999/02/22-rdf-syntax-ns#"
   xmlns:svg="http://www.w3.org/2000/svg"
   xmlns="http://www.w3.org/2000/svg"
   viewBox="0 0 4673.7334 4936.5068"
   height="4936.5068"
   width="4673.7334"
   xml:space="preserve"
   id="svg2"
   version="1.1"><metadata
     id="metadata8"><rdf:RDF><cc:Work
         rdf:about=""><dc:format>image/svg+xml</dc:format><dc:type
           rdf:resource="http://purl.org/dc/dcmitype/StillImage" /></cc:Work></rdf:RDF></metadata><defs
     id="defs6" /><g
     transform="matrix(1.3333333,0,0,-1.3333333,0,4936.5067)"
     id="g10"><g
       transform="scale(0.1)"
       id="g12"><g
         transform="scale(2.27141)"
         id="g14"><path
           id="path16"
           style="fill:#f5f6f5;fill-opacity:1;fill-rule:nonzero;stroke:none"
           d="M 4842.63,14421.6 C 2639.28,12795 4630.21,10697.3 3412.71,8455.27 2195.23,6213.32 755.548,6733.96 401.488,5426.36 47.4358,4118.76 1532.65,1103.45 6956.38,1398.34 c 5423.72,294.88 8004.42,4706.81 7487.42,6849.26 -517.1,2142.4 -5164.94,9448.9 -9601.17,6174" /></g><g
         transform="scale(1.46901)"
         id="g18"><path
           id="path20"
           style="fill:#4964b8;fill-opacity:1;fill-rule:nonzero;stroke:none"
           d="m 15970.7,1141.99 c 0,0 329.3,1046.5 -436.1,2094.14 -765.4,1047.65 -1052.7,-33.22 -772.5,-447.24 0,0 -441.6,1210.14 -944,1172.02 -502.4,-38.12 -147.2,-646.63 -147.2,-646.63 0,0 -523,1079.64 -980.8,864.19 -457.8,-215.45 70.5,-801.09 70.5,-801.09 0,0 -1042.7,1039.14 -1401.4,593.67 -358.8,-445.4 737.3,-1061.8 1166.2,-1054.59 0,0 -739.4,-217.36 -477.2,-549.21 262.3,-331.8 1057.3,-1.37 1057.3,-1.37 0,0 -608.8,-243.15 -550.6,-552.21 58.2,-309.12 808.7,-442.61 1451.1,29.75 0,0 -950.3,-435.46 -479.8,-796.18 470.4,-360.724 1332.6,-575.833 2444.5,94.75" /></g><g
         transform="scale(1.43107)"
         id="g22"><path
           id="path24"
           style="fill:#58a3de;fill-opacity:1;fill-rule:nonzero;stroke:none"
           d="m 16291,1275.69 c -1.1,0.98 -779.4,764.11 -1934.8,1341.72 -576.1,287.97 -1058.2,525.63 -1453,738.2 -394.9,212.5 -702.6,400.05 -929.8,586.97 -9.6,7.9 -23.8,6.57 -31.7,-3.08 -7.9,-9.57 -6.5,-23.75 3.1,-31.65 231.3,-190.14 541.1,-378.67 937.1,-591.86 396,-213.2 878.2,-450.93 1454.2,-738.82 574.2,-286.99 1055.4,-620.66 1392.8,-882.42 168.7,-130.89 301.4,-243.74 392,-323.89 45.3,-40.11 79.9,-71.97 103.4,-93.78 11.6,-10.89 20.4,-19.35 26.4,-24.94 2.9,-2.86 5.1,-5.03 6.6,-6.43 0.8,-0.7 1.3,-1.26 1.7,-1.61 l 0.5,-0.48 c 8.8,-8.74 23.1,-8.6 31.8,0.27 8.7,8.88 8.6,23.13 -0.3,31.8" /></g><g
         transform="scale(1.2084)"
         id="g26"><path
           id="path28"
           style="fill:#58a3de;fill-opacity:1;fill-rule:nonzero;stroke:none"
           d="m 15619.1,4786.97 0.4,-0.5 c 9.1,-11.58 166.8,-213.58 321.6,-478.56 77.5,-132.41 154.1,-280.7 211.2,-428.33 57.2,-147.64 94.5,-294.77 94.4,-423.79 0,-7.11 -0.1,-14.15 -0.3,-21.18 -0.5,-14.73 11.1,-26.98 25.8,-27.47 14.6,-0.5 27,11.08 27.5,25.81 0.2,7.54 0.3,15.15 0.3,22.84 -0.1,141.43 -40.7,296.43 -100.8,450.19 -90.2,230.63 -224.6,458.62 -336.6,629.42 -111.8,170.72 -201.4,284.17 -201.7,284.59 -9.1,11.58 -25.8,13.57 -37.4,4.38 -11.6,-9.1 -13.5,-25.81 -4.4,-37.4" /></g><g
         transform="scale(1.19753)"
         id="g30"><path
           id="path32"
           style="fill:#58a3de;fill-opacity:1;fill-rule:nonzero;stroke:none"
           d="m 15067.2,3068.82 c 0.6,0.17 185.5,33.82 429.8,106.64 244.3,72.98 547.9,184.79 787.2,343.12 12.4,8.19 15.8,24.8 7.6,37.24 -8.2,12.36 -24.9,15.79 -37.2,7.52 -231.6,-153.4 -531.5,-264.38 -773,-336.36 -120.8,-35.99 -226.9,-62.38 -302.8,-79.67 -38,-8.68 -68.4,-15.11 -89.2,-19.28 -10.4,-2.18 -18.5,-3.76 -23.9,-4.77 -2.7,-0.49 -4.7,-0.91 -6.2,-1.16 -1.3,-0.25 -2,-0.34 -2,-0.34 -14.6,-2.67 -24.3,-16.7 -21.6,-31.31 2.7,-14.61 16.7,-24.3 31.3,-21.63" /></g><g
         transform="scale(1.29485)"
         id="g34"><path
           id="path36"
           style="fill:#58a3de;fill-opacity:1;fill-rule:nonzero;stroke:none"
           d="m 15726.6,4201.02 c 0,0 0.4,-0.78 1.4,-2.48 15.3,-25.64 146.3,-248.83 273.3,-525.54 63.5,-138.39 125.9,-290.07 172.4,-436.88 46.4,-146.74 76.6,-288.61 76.6,-405.91 0,-61.09 -8.1,-115.31 -25.5,-160.02 -5,-12.82 1.4,-27.26 14.1,-32.21 12.8,-4.94 27.3,1.39 32.2,14.21 20.3,52.44 28.9,112.6 28.9,178.02 -0.1,129.66 -33.7,280.72 -83.6,435.41 -74.8,231.92 -186.5,471.71 -279.5,653.97 -93,182.19 -167.5,306.6 -167.6,306.99 -7,11.74 -22.3,15.6 -34.2,8.57 -11.7,-7.1 -15.6,-22.32 -8.5,-34.13" /></g><g
         transform="scale(1.27696)"
         id="g38"><path
           id="path40"
           style="fill:#58a3de;fill-opacity:1;fill-rule:nonzero;stroke:none"
           d="m 14860.9,2125.83 -9.3,13.79 7.9,-14.65 c 0.2,0.16 0.6,0.39 1.4,0.86 l -9.3,13.79 7.9,-14.65 -3.6,6.66 3.4,-6.74 0.2,0.08 -3.6,6.66 3.4,-6.74 -0.6,1.1 0.5,-1.1 h 0.1 l -0.6,1.1 0.5,-1.1 c 0.2,0.08 2,0.86 4.5,1.8 4.9,1.88 13.1,4.7 23.6,8.31 40,13.62 115,37.98 212.9,72.59 146.8,51.92 345.3,127.02 556.1,224.36 210.7,97.42 433.8,217 629.9,358.19 11.3,8.15 13.8,23.97 5.7,35.24 -8.1,11.28 -23.9,13.87 -35.2,5.72 -286.4,-206.35 -634.8,-367.59 -914.5,-478.87 -139.9,-55.75 -262.5,-98.98 -351.8,-129.37 -44.7,-15.19 -81,-27.17 -107,-35.95 -13.1,-4.38 -23.6,-7.98 -31.4,-10.8 -4,-1.49 -7.3,-2.67 -10.2,-3.84 -1.4,-0.62 -2.7,-1.17 -4.1,-1.8 -1.4,-0.71 -2.7,-1.33 -5.1,-2.9 -11.5,-7.75 -14.6,-23.41 -6.7,-35 7.8,-11.51 23.5,-14.49 35,-6.74" /></g><g
         transform="scale(1.4045)"
         id="g42"><path
           id="path44"
           style="fill:#58a3de;fill-opacity:1;fill-rule:nonzero;stroke:none"
           d="m 15884.6,3361.4 c 0,0 0.3,-0.85 1,-2.56 10.7,-26.13 103,-253.83 192.6,-545.61 44.7,-145.88 88.8,-307.79 121.6,-468.42 32.8,-160.55 54.3,-319.9 54.3,-460.09 0,-109.58 -13.2,-207.33 -43.4,-284.51 -4.5,-11.75 1.2,-25.06 13,-29.69 11.9,-4.56 25.1,1.28 29.7,13.03 33.1,85.08 46.5,187.96 46.6,301.17 -0.1,149.52 -23.5,317.19 -58.5,485.01 -52.6,251.77 -131.2,503.74 -196.6,693.06 -65.5,189.32 -117.8,315.84 -118,316.12 -4.8,11.68 -18.2,17.24 -30,12.39 -11.6,-4.84 -17.2,-18.22 -12.3,-29.9" /></g><g
         transform="scale(1.37128)"
         id="g46"><path
           id="path48"
           style="fill:#58a3de;fill-opacity:1;fill-rule:nonzero;stroke:none"
           d="m 14708.2,1359.1 c 0.9,0.07 218.3,19.39 524,94.8 305.7,75.4 699.6,206.67 1053.6,431.79 10.9,7 14.2,21.51 7.2,32.45 -6.9,10.94 -21.4,14.15 -32.4,7.22 -347.6,-221.18 -737.2,-351.35 -1039.7,-425.88 -151.2,-37.34 -280.7,-60.75 -372.2,-74.82 -45.7,-7.01 -82,-11.74 -106.7,-14.66 -12.4,-1.46 -22,-2.48 -28.4,-3.14 -3.2,-0.36 -5.6,-0.58 -7.2,-0.73 -0.8,-0.07 -1.4,-0.14 -1.8,-0.22 h -0.6 c -12.9,-1.16 -22.4,-12.54 -21.3,-25.45 1.2,-12.98 12.6,-22.46 25.5,-21.36" /></g><g
         transform="scale(2.02164)"
         id="g50"><path
           id="path52"
           style="fill:#f9a687;fill-opacity:1;fill-rule:nonzero;stroke:none"
           d="m 5065.59,15494.4 c 0,0 -351.09,31 -423.58,165.8 -72.48,134.8 12.28,545 150.43,592.4 138.15,47.4 433.37,8.7 464.34,-136.9 30.96,-145.5 -120.7,-632.7 -191.19,-621.3" /></g><g
         transform="scale(2.02941)"
         id="g54"><path
           id="path56"
           style="fill:#f9a687;fill-opacity:1;fill-rule:nonzero;stroke:none"
           d="m 4602.35,15821.7 c 0,0 -104.81,250.1 -201.48,364.2 -96.67,114.1 114.24,89.5 246.4,-151.8 132.16,-241.3 -44.92,-212.4 -44.92,-212.4" /></g><g
         transform="scale(2.10471)"
         id="g58"><path
           id="path60"
           style="fill:#f9a687;fill-opacity:1;fill-rule:nonzero;stroke:none"
           d="m 4501.16,15494 c 0,0 36.86,612.4 80.06,709.2 43.22,96.8 61.8,-470.7 51.59,-585.1 -10.21,-114.4 -131.65,-124.1 -131.65,-124.1" /></g><g
         transform="scale(2.08353)"
         id="g62"><path
           id="path64"
           style="fill:#f9a687;fill-opacity:1;fill-rule:nonzero;stroke:none"
           d="m 4937.57,15554.4 c 0,0 210.84,582.8 280.39,664.2 69.54,81.4 -74.78,-473.7 -117.35,-581.6 -42.62,-107.9 -163.04,-82.6 -163.04,-82.6" /></g><g
         transform="scale(2.11586)"
         id="g66"><path
           id="path68"
           style="fill:#f9a687;fill-opacity:1;fill-rule:nonzero;stroke:none"
           d="m 4615.43,15489.7 c 0,0 73.14,673.9 107.82,742.1 34.67,68.2 93.09,-461.9 15.77,-748.2 -77.32,-286.3 -123.59,6.1 -123.59,6.1" /></g><g
         transform="scale(2.09651)"
         id="g70"><path
           id="path72"
           style="fill:#f9a687;fill-opacity:1;fill-rule:nonzero;stroke:none"
           d="m 4792.24,15614.7 c 0,0 127.31,550.2 175.2,617.8 47.84,67.5 86.81,-350.2 -37.78,-644.9 -124.63,-294.6 -137.42,27.1 -137.42,27.1" /></g><g
         transform="scale(1.94699)"
         id="g74"><path
           id="path76"
           style="fill:#da7f18;fill-opacity:1;fill-rule:nonzero;stroke:none"
           d="m 2144.29,12239.1 c 0,0 2247.06,1243.1 2621.81,4060.9 l 659.86,-170.2 c 0,0 -63.12,-3132.3 -2045.13,-4791.2 0,0 -268.27,-239.6 -623.48,-225.1 -355.2,14.5 -810.25,787.2 -630.51,1084.8 l 17.45,40.8" /></g><path
         id="path78"
         style="fill:#4ab239;fill-opacity:1;fill-rule:nonzero;stroke:none"
         d="M 7813.58,645.996 C 8837.81,607.398 9842.22,932.398 10661.7,1548 c 1380.5,1037.09 3567,2835 3501.3,3775.2 -95.8,1371 -3959.6,-1348.5 -4571.93,-3205 0,0 1293.13,3446.8 778.53,4107.2 C 9855,6885.7 8848.49,2145.2 8848.49,2145.2 c 0,0 385.56,5667.2 -1000.59,4558.2 -1386.16,-1109.1 -209.82,-4252.9 -209.82,-4252.9 0,0 -1123.06,2024.1 -1932.8,1954.8 -809.74,-69.3 370.37,-1848.3 1207.55,-2234.6 0,0 -1826.55,1370.4 -2629.52,536.4 -663.29,-689 943.76,-1963.604 3530.27,-2061.104" /><path
         id="path80"
         style="fill:#131110;fill-opacity:1;fill-rule:nonzero;stroke:none"
         d="m 6132.01,1520.5 c 0,0 -68.5,-1031.102 0,-1297.305 h 3466.52 c 0,0 23.76,551.301 -451.49,741.403 C 8671.79,1154.7 7517.53,1520.5 7517.53,1520.5" /><g
         transform="scale(1.01901)"
         id="g82"><path
           id="path84"
           style="fill:#2b437c;fill-opacity:1;fill-rule:nonzero;stroke:none"
           d="m 7871.25,16300 c 0,0 711.74,-10503.37 -463.54,-14807.86 H 6017.64 L 4677.25,16300 h 3194" /></g><g
         transform="scale(1.15186)"
         id="g86"><path
           id="path88"
           style="fill:#4964b8;fill-opacity:1;fill-rule:nonzero;stroke:none"
           d="m 6963.36,14518.9 c 0,0 -865.41,-9873.57 -1806.63,-13198.87 H 3953.88 c 0,0 -331.63,11417.77 -592.44,13198.87 -260.8,1781.1 3601.92,0 3601.92,0" /></g><path
         id="path90"
         style="fill:#1c1b1a;fill-opacity:1;fill-rule:nonzero;stroke:none"
         d="m 4554.33,1520.5 c 0,0 -68.5,-1031.102 0,-1297.305 h 3466.52 c 0,0 23.76,551.301 -451.49,741.403 C 7094.11,1154.7 5939.85,1520.5 5939.85,1520.5" /><g
         transform="scale(1.0628)"
         id="g92"><path
           id="path94"
           style="fill:#f2e1bb;fill-opacity:1;fill-rule:nonzero;stroke:none"
           d="m 3614.2,16300 -229.69,-778.1 c 0,0 120.74,-241.5 1328.09,-415.8 1207.34,-174.5 3109.87,13.3 3225.1,107.2 115.24,93.9 -153.06,778.2 -153.06,778.2 L 3614.2,16300" /></g><g
         transform="scale(1.61013)"
         id="g96"><path
           id="path98"
           style="fill:#f09711;fill-opacity:1;fill-rule:nonzero;stroke:none"
           d="m 4418.5,15520 c 0,0 640.62,-31.5 688.99,-903.1 19.9,-358.5 164.19,-4089.5 125.34,-4237.4 -38.86,-147.8 -779.3,-271.4 -1524.98,-175.3 -745.68,96 -1281.17,229.2 -1393.07,380.6 -46.83,63.4 -60.47,587.3 -108.89,1666.5 -59.83,1333.4 15.34,2161.5 121.25,2582.5 368.84,1466.2 2091.36,686.2 2091.36,686.2" /></g><g
         transform="scale(1.55406)"
         id="g100"><path
           id="path102"
           style="fill:#f2e1bb;fill-opacity:1;fill-rule:nonzero;stroke:none"
           d="m 3775.24,15879.2 c -146.22,104.8 -230.68,272.2 -241.06,404 459.14,16.8 981.2,-182 1039.9,-202 58.67,-53.1 115.9,-117.1 130.89,-174.5 31.47,-120.6 -374.72,-424.9 -929.73,-27.5" /></g><g
         transform="scale(1.61448)"
         id="g104"><path
           id="path106"
           style="fill:#f9a687;fill-opacity:1;fill-rule:nonzero;stroke:none"
           d="m 3595.09,16300 c 0,0 0,-587.9 -70.64,-738 0,0 263.49,-207.7 825.56,-157 0,0 -31.03,293.9 0,497 31.04,203.1 -754.92,398 -754.92,398" /></g><g
         transform="scale(1.61308)"
         id="g108"><path
           id="path110"
           style="fill:#f39c7f;fill-opacity:1;fill-rule:nonzero;stroke:none"
           d="m 3651.61,16300 c 176.33,-48.2 728.3,-213.3 702.17,-384.2 -12.28,-80.4 -14.83,-175 -13.45,-260 -150.49,82.8 -650.08,376.6 -688.72,644.2" /></g><g
         transform="scale(1.69583)"
         id="g112"><path
           id="path114"
           style="fill:#e68f6e;fill-opacity:1;fill-rule:nonzero;stroke:none"
           d="m 4437.33,16099.9 c 7.32,-99.2 93.64,-173.7 192.81,-166.4 99.17,7.4 173.62,93.7 166.3,192.9 -7.33,99.1 -93.65,173.6 -192.82,166.3 -99.16,-7.3 -173.62,-93.7 -166.29,-192.8" /></g><g
         transform="scale(1.76272)"
         id="g116"><path
           id="path118"
           style="fill:#f14636;fill-opacity:1;fill-rule:nonzero;stroke:none"
           d="m 4446.14,16283.1 c 0,0 120.67,-493.9 74.22,-746.1 -46.47,-252.2 -211.39,763 -211.39,763 l 137.17,-16.9" /></g><g
         transform="scale(1.79397)"
         id="g120"><path
           id="path122"
           style="fill:#f9a687;fill-opacity:1;fill-rule:nonzero;stroke:none"
           d="m 3137.85,14912.3 c -7.56,150.6 -48.02,794.7 20.26,1025.5 68.29,230.8 270.74,329.3 493.52,345.7 222.78,16.5 556,-42.4 657.45,-260.7 101.45,-218.3 156.05,-861.3 170.68,-1011.4 14.64,-150 -1.89,-263.2 -28.89,-331 -26.99,-67.8 -205.38,-349.4 -287.76,-389.2 -82.39,-39.9 -154.88,-45.2 -154.88,-45.2 0,0 -72.49,-5.4 -159.83,21.9 -87.35,27.3 -596.7,258.2 -633.36,321.3 -36.65,63 -69.64,172.6 -77.19,323.1" /></g><g
         transform="scale(1.68932)"
         id="g124"><path
           id="path126"
           style="fill:#1e1c1b;fill-opacity:1;fill-rule:nonzero;stroke:none"
           d="m 4001.4,16203.3 c 3.67,-49.8 32.43,-88.2 64.23,-85.9 31.8,2.4 54.6,44.6 50.92,94.4 -3.67,49.8 -32.43,88.2 -64.23,85.9 -31.8,-2.4 -54.6,-44.7 -50.92,-94.4" /></g><g
         transform="scale(1.72617)"
         id="g128"><path
           id="path130"
           style="fill:#bd2f22;fill-opacity:1;fill-rule:nonzero;stroke:none"
           d="m 3730.79,16135 c 0,0 1.53,-54.1 24.52,-81.9 0,0 146.58,116.7 339.3,108.8 0,0 7.38,100.3 -31.13,138.1 0,0 -158.03,-11.7 -332.69,-165" /></g><g
         transform="scale(1.69329)"
         id="g132"><path
           id="path134"
           style="fill:#1e1c1b;fill-opacity:1;fill-rule:nonzero;stroke:none"
           d="m 4615.81,16211.3 c 3.66,-49.6 -9.9,-91.1 -30.3,-92.6 -20.39,-1.5 -39.89,37.5 -43.56,87.2 -3.67,49.6 9.89,91.1 30.28,92.6 20.4,1.5 39.91,-37.5 43.58,-87.2" /></g><g
         transform="scale(1.72929)"
         id="g136"><path
           id="path138"
           style="fill:#bd2f22;fill-opacity:1;fill-rule:nonzero;stroke:none"
           d="m 4583.16,16169.4 c 0,0 5.54,-53.7 -5.65,-84 0,0 -86.52,99.3 -207.53,68.2 0,0 -16.74,98.4 3.07,140.4 0,0 81.11,6 210.11,-124.6" /></g><g
         transform="scale(1.70408)"
         id="g140"><path
           id="path142"
           style="fill:#e68f6e;fill-opacity:1;fill-rule:nonzero;stroke:none"
           d="m 4423.6,16300 c 0,0 -50.52,-111.1 -8.17,-216 42.36,-104.9 159.02,-142.4 137.4,-261.5 -21.62,-119 -230.87,-130.6 -321.96,-98.9 0,0 271.91,-32.7 285.26,84.7 13.35,117.4 -126.55,214 -130.12,333.3 -3.56,119.3 37.59,158.4 37.59,158.4" /></g><g
         transform="scale(1.84518)"
         id="g144"><path
           id="path146"
           style="fill:#f14636;fill-opacity:1;fill-rule:nonzero;stroke:none"
           d="m 3308.97,14764.2 c 0,0 58.5,-22.8 68.09,109.7 9.59,132.4 105.52,302.2 60.34,546.8 0,0 140.65,138.2 366,104.5 225.36,-33.7 377.18,-96.1 531.61,16 154.42,112.1 109.57,562.1 -65.93,630.5 -175.51,68.3 -191.94,-68.5 -191.94,-68.5 0,0 -11.14,196.8 -144.9,171.4 -133.77,-25.3 -44.47,-158.2 -175.61,-179.5 -131.15,-21.3 -603.06,-83.3 -725.53,-208.6 -122.46,-125.2 -49.28,-224.4 -49.28,-224.4 0,0 -87.35,-76.2 -112.95,-306.6 -25.59,-230.5 38.23,-644.2 182.16,-862.1 0,0 3.24,143.8 41.93,223.3 38.68,79.4 112.81,190.7 205.61,188.4 0,0 -9.85,-111.4 10.4,-140.9" /></g><g
         transform="scale(1.68728)"
         id="g148"><path
           id="path150"
           style="fill:#e68f6e;fill-opacity:1;fill-rule:nonzero;stroke:none"
           d="m 3607.27,16300 4.92,-66.6 c -50.77,-16.1 -85.92,-65.1 -81.83,-120.5 4.1,-55.5 46.06,-98.8 98.65,-107.2 l 4.92,-66.6 c -99.67,-7.4 -186.44,67.4 -193.8,167.1 -7.36,99.7 67.47,186.4 167.14,193.8" /></g><g
         transform="scale(1.63774)"
         id="g152"><path
           id="path154"
           style="fill:#e68f6e;fill-opacity:1;fill-rule:nonzero;stroke:none"
           d="m 4546.76,16206.2 c 0,0 -293.25,-61.2 -490.47,93.8 0,0 52.39,-178.6 496.59,-128.1 l -6.12,34.3" /></g><g
         transform="scale(2.2714)"
         id="g156"><path
           id="path158"
           style="fill:#eaebee;fill-opacity:1;fill-rule:nonzero;stroke:none"
           d="m 3900.18,13234.7 c 30.18,305.3 101.05,606.2 210.96,893.5 -6.17,-63.6 -3.5,-123.2 10.21,-165.5 l -35.96,9.3 c -25.19,-189.5 -60.23,-370.5 -103.46,-543.4 -30.68,-64.2 -57.79,-128.7 -81.75,-193.9 m 6619.82,650.7 c -1006.52,811.6 -2136.49,1368.1 -3307,1368.1 -780.49,0 -1578.59,-247.4 -2370.34,-831.8 -56.05,-41.4 -109.54,-83.2 -160.3,-125.2 0.26,18.2 -0.88,34.2 -3.61,47.2 36.41,92.2 153.91,540.9 117.99,540.9 -2.6,0 -6.03,-2.4 -10.35,-7.4 -40.02,-46.9 -131.11,-274.8 -193.4,-438.1 -6.48,3.3 -13.21,6.4 -20.17,9.3 80.17,243.9 57.72,541 21.62,541 -0.18,0 -0.35,0 -0.53,-0.1 205.03,265.6 452.85,504.1 741.7,704.7 589.02,409.2 1263.45,606 1931.9,606 1058.16,0 2100.9,-493.7 2763.19,-1420.2 222.5,-311.3 384.8,-647.4 489.3,-994.4 m -6227.07,587.8 c 1.13,13.2 1.86,32.5 2.2,56.1 6.52,12.1 13.06,24.1 19.73,36.1 -4.17,-35.7 -7.69,-66.6 -10.31,-89.9 -3.95,-0.7 -7.83,-1.5 -11.62,-2.3 m 146.32,6.8 c -3.92,0.4 -7.79,0.7 -11.67,1 17.57,93.2 23.42,203.9 22.37,307 39.8,60.2 81.8,119.5 125.65,177.4 -37.43,-82 -105.49,-356.7 -136.35,-485.4" /></g><g
         transform="scale(2.12557)"
         id="g160"><path
           id="path162"
           style="fill:#e3e4e6;fill-opacity:1;fill-rule:nonzero;stroke:none"
           d="m 9237.91,8615.11 c -89.29,81.2 -171.86,172.29 -245.91,273.06 -116.06,157.93 -203.38,327.91 -263.03,503.87 -154.08,454.46 -580.98,762.26 -1060.66,775.96 -1094.81,31.3 -2162.77,556.2 -2848.8,1516.1 -149.37,209 -273.13,429.1 -371.86,656.3 498.61,1249.9 522.46,2434.3 522.46,2434.3 l -94.52,24.4 c 59.28,112.3 126.18,348.9 128.02,478.2 54.24,44.9 111.4,89.6 171.29,133.8 846.08,624.6 1698.94,888.9 2532.97,888.9 1250.82,0 2458.33,-594.7 3533.93,-1462 210.4,-698.7 201.5,-1438.9 -10.3,-2121.9 -142.2,-459 6.7,-961.7 387.8,-1254.4 142,-109 270.4,-240.5 379.9,-393.6 77.8,-108.9 142,-223.3 193.3,-341.2 L 9237.91,8615.11 M 4156.93,14008 c 2.78,44.9 6.4,89.9 10.83,134.7 25.61,69.6 54.58,138.6 87.36,207.2 -29.33,-117.4 -62.27,-231.5 -98.19,-341.9" /></g><g
         transform="scale(2.01792)"
         id="g164"><path
           id="path166"
           style="fill:#e5bdb0;fill-opacity:1;fill-rule:nonzero;stroke:none"
           d="m 5135.68,15588.5 -496.64,128.1 c -15.43,47.6 -18.44,114.7 -11.49,186.3 1.12,2.9 2.2,5.7 3.34,8.6 2.76,-0.3 7.79,-0.8 14.16,-0.8 37.06,0 118.75,15.7 53.42,164.9 14.28,32.5 29.09,64.9 44.28,97.1 37.07,14.9 83.08,47.3 89.31,117.1 0.04,0.5 0.08,0.9 0.12,1.4 4.27,0.9 8.63,1.8 13.07,2.7 -3.69,-32.9 -5.81,-52.4 -5.81,-52.4 0,0 21.86,-138.2 60.77,-138.2 19.05,0 42.18,33.2 68.82,131.8 5.55,20.5 10.4,42.3 14.71,64.9 4.36,-0.3 8.73,-0.7 13.14,-1.1 -11.15,-46.5 -17.99,-76 -17.99,-76 0,0 6.24,-157.3 51.93,-157.3 20.96,0 50.15,33 90.84,129.1 9.36,22.3 17.89,45.2 25.57,68.6 7.83,-3.3 15.41,-6.8 22.69,-10.5 -41.62,-109.2 -71.8,-192.7 -71.8,-192.7 0,0 12.68,-2.6 31.37,-2.6 39.84,0 106.99,12.1 136.97,87.9 v 0 c 3.07,-14.6 4.36,-32.6 4.06,-53.1 -1.93,-136.2 -72.4,-385.4 -134.84,-503.8" /></g><g
         transform="scale(1.99013)"
         id="g168"><path
           id="path170"
           style="fill:#e5bdb0;fill-opacity:1;fill-rule:nonzero;stroke:none"
           d="m 4709.9,16132.9 c -6.45,0 -11.56,0.5 -14.36,0.8 21.57,56 44.37,111.3 68.54,166.3 66.23,-151.3 -16.6,-167.1 -54.18,-167.1" /></g><g
         transform="scale(2.02466)"
         id="g172"><path
           id="path174"
           style="fill:#e5bdb0;fill-opacity:1;fill-rule:nonzero;stroke:none"
           d="m 4726.98,16118.9 c 28.88,61.1 59.41,121.5 91.6,181.1 -0.39,-26.5 -1.21,-48.2 -2.47,-63 -0.04,-0.5 -0.08,-0.9 -0.12,-1.3 -6.21,-69.7 -52.07,-102 -89.01,-116.8" /></g><g
         transform="scale(2.07417)"
         id="g176"><path
           id="path178"
           style="fill:#e5bdb0;fill-opacity:1;fill-rule:nonzero;stroke:none"
           d="m 4990.39,15622 c -18.18,0 -30.52,2.6 -30.52,2.6 0,0 29.36,81.3 69.86,187.5 68.22,178.8 167.97,428.4 211.8,479.7 4.72,5.6 8.48,8.2 11.33,8.2 39.34,0 -89.34,-491.3 -129.21,-592.4 v 0 c -29.17,-73.8 -94.5,-85.6 -133.26,-85.6" /></g><g
         transform="scale(2.0607)"
         id="g180"><path
           id="path182"
           style="fill:#e5bdb0;fill-opacity:1;fill-rule:nonzero;stroke:none"
           d="m 4798.49,15769.1 c -38.11,0 -59.51,135.3 -59.51,135.3 0,0 2.07,19 5.69,51.2 2.89,25.7 6.77,59.7 11.37,99 46.35,83.5 95.98,165.3 148.9,245.4 1.16,-113.6 -5.29,-235.6 -24.66,-338.4 -4.22,-22.2 -8.97,-43.4 -14.41,-63.5 -26.08,-96.6 -48.73,-129 -67.38,-129" /></g><g
         transform="scale(2.08876)"
         id="g184"><path
           id="path186"
           style="fill:#e5bdb0;fill-opacity:1;fill-rule:nonzero;stroke:none"
           d="m 4860.2,15520.7 c -44.14,0 -50.17,152 -50.17,152 0,0 6.6,28.5 17.37,73.4 33.57,139.9 107.58,438.7 148.27,527.8 6.56,8.7 13.26,17.4 19.92,26.1 0.19,0 0.38,0 0.57,0 39.26,0 63.68,-323 -23.5,-588.3 -7.42,-22.6 -15.66,-44.7 -24.71,-66.2 -39.3,-92.9 -67.5,-124.8 -87.75,-124.8" /></g><g
         transform="scale(1.94699)"
         id="g188"><path
           id="path190"
           style="fill:#d2a959;fill-opacity:1;fill-rule:nonzero;stroke:none"
           d="m 4855.59,13472.3 c -252.8,581.7 -355.42,1206.6 -317.39,1820.5 39.21,120.5 75.17,245.1 107.2,373.2 50.44,201.8 91.31,413 120.7,634 l 41.94,-10.8 514.74,-132.8 103.18,-26.6 c 0,0 -26.04,-1293 -570.37,-2657.5" /></g><g
         transform="scale(1.96751)"
         id="g192"><path
           id="path194"
           style="fill:#d99a15;fill-opacity:1;fill-rule:nonzero;stroke:none"
           d="m 12166.4,9685.89 c -0.2,0.41 -438.7,672.81 -990,1411.11 -275.8,369.2 -579.7,754.9 -871.6,1081.6 -145.9,163.4 -288.9,312.2 -424.09,436.8 -135.3,124.7 -262.62,225.4 -378.7,292.9 -166.56,96.9 -355.12,151.2 -553.55,181.4 -198.52,30.3 -407.21,36.6 -615.24,36.6 -155.22,0 -310.09,-3.5 -459.87,-3.5 -142.26,0 -280,3.2 -408.94,15.5 -96.72,9.2 -188.51,23.5 -273.55,45.3 -63.73,16.2 -123.76,36.7 -179.26,62.2 -83.35,38.2 -156.69,87.6 -218.8,152 -62.06,64.3 -113.19,143.7 -151.26,243 -34.51,89.8 -49.45,169.5 -49.45,239.5 0,42.9 5.59,82.3 15.9,118.6 18.1,63.5 50.47,117.7 94.18,164.4 32.79,34.9 71.97,65.5 116.04,91.6 66.12,39.2 143.18,68.5 224.75,87.7 81.63,19.3 167.73,28.6 251.64,28.6 71.05,0 140.58,-6.7 204.42,-19.4 47.93,-9.6 92.6,-22.6 132.4,-38.6 29.78,-12 56.82,-25.6 80.35,-40.6 35.33,-22.6 62.62,-48.1 80.61,-75.4 9.05,-13.6 15.81,-27.6 20.44,-42.3 4.57,-14.6 6.96,-29.9 6.96,-46.2 0,-13.5 -1.68,-27.7 -5.34,-42.9 -6,-25 -14.28,-45.5 -24.04,-62.1 -7.37,-12.5 -15.55,-22.8 -24.39,-31.4 -13.32,-12.9 -28.26,-22.1 -45.24,-28.3 -16.97,-6.2 -36.14,-9.4 -57.38,-9.4 -23.58,0 -49.71,4 -77.21,12 -48.08,14 -100.33,40.3 -150.95,76.4 -76.08,54.1 -148.56,130.2 -201.27,217.8 -26.38,43.8 -47.88,90.4 -62.72,138.5 -14.84,48.1 -23.07,97.7 -23.07,147.7 0.05,65.7 14.03,132 46.35,198 32.43,65.9 83.36,131.5 158.43,194.4 92.04,77.1 193.84,130.3 300.02,164.4 106.12,34.1 216.57,49 325.23,49 105.21,0 208.69,-14 304.45,-37.7 71.81,-17.8 139.31,-41 199.9,-67.9 90.87,-40.2 166.2,-88.7 217.07,-137.4 25.42,-24.2 44.73,-48.5 57.13,-71 6.25,-11.2 10.77,-22 13.72,-32.2 2.95,-10.2 4.32,-19.7 4.32,-28.6 0,-8.9 -1.32,-17.3 -4.06,-25.6 -4.17,-12.5 -11.54,-25.1 -23.94,-38.1 -12.4,-12.9 -29.94,-26.2 -53.47,-38.7 -37.87,-20.1 -73.34,-28.7 -107.65,-28.7 -29.02,0 -57.43,6.2 -85.74,18.2 -24.7,10.5 -49.3,25.5 -73.29,44.5 -42.08,33.4 -82.34,79.3 -118.58,133.9 -54.38,81.7 -99.67,182.7 -131.03,288 -31.41,105.3 -48.84,214.9 -48.84,313.8 0,72 9.3,138.2 28.26,192.5 9.45,27.1 21.24,51.3 35.22,72 14.03,20.7 30.14,37.9 48.69,51.7 50.12,37.3 118.88,66.9 197.92,86.6 79.03,19.8 168.23,30 259.06,29.9 82.33,0 166.04,-8.3 244.77,-24.8 59.06,-12.3 115.33,-29.3 166.1,-50.7 76.24,-32 139.87,-74 183.28,-123.7 21.75,-24.9 38.57,-51.6 50.01,-80.5 11.43,-28.8 17.64,-59.8 17.64,-93.8 0,-23.5 -3,-48.4 -9.46,-75 -4.88,-20.1 -10.42,-36.8 -16.16,-50 -4.32,-9.9 -8.79,-17.9 -13.01,-24.2 -6.41,-9.3 -12.25,-14.5 -16.78,-17.2 -2.28,-1.3 -4.26,-2.2 -6.2,-2.7 -1.98,-0.6 -3.91,-0.8 -6.2,-0.8 -2.89,0 -6.4,0.4 -10.62,1.8 -7.93,2.4 -18.45,8 -30.14,17.5 -10.21,8.2 -21.24,19.1 -32.47,32.5 -19.62,23.3 -39.8,53.8 -58.56,89.2 -28.25,53 -53.47,116.8 -71.41,183.8 -17.99,67 -28.71,137.3 -28.66,203.2 0,38 3.56,74.6 11.08,108.2 5.64,25.3 13.52,48.8 23.68,70.3 15.35,32.3 35.73,59.8 62.32,82 26.58,22.2 59.61,39.4 101.75,49.9 39.23,9.8 81.42,14.5 125.59,14.5 93.21,0 195.17,-20.9 295.09,-56.5 74.92,-26.7 148.72,-61.5 216.98,-101.4 102.41,-59.6 192.44,-130.9 255.44,-201.5 31.5,-35.2 56.2,-70.3 72.6,-103 8.2,-16.4 14.4,-32.1 18.4,-46.9 4,-14.9 6,-28.7 6,-41.6 -0.1,-16.1 -3,-30.5 -9,-44.2 -4.5,-10.3 -10.9,-20.2 -19.7,-30 -13.1,-14.6 -31.9,-28.9 -57.8,-41.9 -25.8,-12.9 -58.8,-24.5 -99.3,-33.6 -39.5,-8.8 -75.72,-12.9 -108.75,-12.9 -59.16,0.1 -108.16,12.7 -149.43,34.2 -30.95,16.2 -57.64,37.4 -80.56,62.9 -34.36,38.1 -60.18,85.9 -77.36,138.9 -17.12,52.9 -25.56,110.9 -25.56,168.5 0,48.2 5.9,96.1 17.13,140.4 8.38,33.3 19.77,64.5 33.74,92.3 20.95,41.7 47.63,75.6 78.07,98.4 15.25,11.5 31.41,20.3 48.64,26.2 17.28,6 35.63,9.2 55.61,9.2 6.5,0 13.16,-0.3 20.02,-1 33.8,-3.5 72.28,-13.3 113.39,-29.1 71.96,-27.6 151.76,-73.4 230.26,-133.5 117.8,-90.1 232.7,-212.4 317.3,-352.2 42.4,-69.9 77.2,-144.2 101.4,-221 24.2,-76.8 37.7,-156.1 37.7,-236.4 0,-78.5 -12.9,-158.1 -41.8,-237.7 -28.9,-79.7 -73.8,-159.5 -138.5,-238.4 -183.2,-223.5 -336.2,-407.5 -444.9,-579.9 -54.34,-86.2 -97.54,-169.7 -127.23,-253.8 -29.73,-84.1 -45.84,-168.9 -45.84,-256.8 0,-89.1 16.57,-181.1 50.98,-278.3 34.46,-97.3 86.69,-200 158.09,-311.8 104.9,-164 267.9,-407.8 453.6,-681.6 557,-821.4 1318.2,-1912.1 1318.2,-1912.1 11.9,-17 35.2,-21.2 52.2,-9.3 16.9,11.8 21.1,35.2 9.3,52.2 0,0 -5.3,7.6 -15.3,21.9 -75.1,107.6 -416,597.1 -787.1,1136.1 -185.6,269.5 -378.7,551.4 -549.8,804.2 -171.1,252.7 -320.4,476.4 -417.9,629 -69.2,108.2 -118.6,206 -150.59,296.4 -32.02,90.5 -46.71,173.5 -46.71,253.3 0,78.7 14.23,154.6 41.52,231.8 40.88,115.9 111.58,234.9 206.88,366.8 95.3,131.9 215,276.7 352.6,444.4 69.5,84.9 119,172.3 151,260.3 31.9,88 46.3,176.5 46.3,263.3 0,135.3 -34.8,266.2 -91.2,386.5 -84.6,180.6 -217.5,338 -359.1,454.4 -70.8,58.2 -143.8,106.1 -214.6,141.3 -70.8,35.2 -139.3,57.8 -202.32,64.5 -9.4,1 -18.7,1.5 -27.85,1.5 -25.01,0 -49.1,-3.7 -71.72,-10.6 -39.64,-12.1 -74.66,-34.1 -104.19,-62.6 -44.37,-42.7 -77,-99.5 -99.01,-163 -21.9,-63.5 -33.19,-134 -33.19,-205.3 0,-57.6 7.37,-115.7 22.98,-171 11.69,-41.5 28,-81.3 49.4,-118 32.07,-55 75.88,-103 132.14,-136.9 56.22,-34.1 124.63,-53.6 203.31,-53.5 39.13,0 80.85,4.7 125.25,14.7 40.1,9 75.1,20.5 105.2,34.4 22.7,10.4 42.7,22.2 60.1,35.5 25.9,20 46.1,43.4 59.4,69.6 13.3,26.1 19.5,54.7 19.5,83.3 0,36.3 -9.6,72.7 -25.9,108.6 -14.3,31.5 -33.7,62.7 -57.4,93.5 -41.4,53.9 -95.8,106.7 -158.9,156.1 -94.78,74.2 -209.29,140.6 -329.95,189 -120.66,48.3 -247.42,78.6 -367.26,78.6 -49.46,0 -97.69,-5.2 -143.74,-16.7 -46.2,-11.5 -86.15,-30.4 -119.49,-55.4 -25,-18.8 -46.2,-40.9 -63.78,-65.3 -26.33,-36.7 -44.38,-78.5 -55.91,-122.9 -11.49,-44.4 -16.47,-91.5 -16.47,-139.5 0,-68.7 10.22,-139.3 27.24,-207.1 12.71,-50.8 29.33,-100 48.54,-145.4 14.38,-34.1 30.24,-66 47.17,-95.1 25.46,-43.5 52.96,-80.4 82.74,-107.9 14.89,-13.8 30.4,-25.3 47.12,-33.7 16.67,-8.4 34.86,-13.8 54.02,-13.8 15.61,0 31.57,3.8 45.85,11.4 10.72,5.6 20.48,13.2 29.12,22.2 13.01,13.5 23.74,30.1 32.94,49.8 9.15,19.6 16.82,42.4 23.28,68.8 7.77,31.9 11.58,62.9 11.58,92.7 0,38.4 -6.35,74.9 -18.24,108.9 -10.37,29.7 -25.01,57.4 -43,83 -31.51,44.8 -73.34,82.9 -121.88,115.1 -72.94,48.2 -161.22,83.3 -256.26,106.6 -95.1,23.4 -197.06,34.9 -297.38,34.9 -96.37,0 -191.21,-10.6 -277.26,-32.2 -86,-21.6 -163.35,-53.9 -224.39,-99.2 -25.92,-19.2 -47.93,-42.9 -66.08,-69.8 -27.29,-40.4 -46.25,-87.8 -58.5,-139.6 -12.25,-51.8 -17.84,-108.1 -17.84,-166.9 0,-93.7 14.18,-193.7 39.8,-291.7 19.21,-73.5 44.83,-145.8 75.98,-213.3 46.76,-101.1 105.62,-191.4 175.2,-258.1 34.82,-33.3 72.43,-60.7 112.88,-80 40.36,-19.3 83.71,-30.3 128.54,-30.3 47.12,0 95.5,12.2 142.87,37.6 19.42,10.3 36.6,21.6 51.59,33.8 22.41,18.4 40,39.2 51.84,62.1 11.9,22.9 17.79,47.8 17.74,72.6 0,29.7 -8.13,58.9 -21.91,86.7 -12.14,24.4 -28.61,47.8 -48.69,70.6 -35.12,39.7 -81.32,77.2 -136.21,111.8 -82.29,51.7 -184.14,96.7 -297.69,128.9 -113.49,32.3 -238.57,51.7 -367.01,51.8 -115.47,-0.1 -233.64,-15.8 -348.15,-52.6 -114.51,-36.7 -225.31,-94.6 -325.18,-178.3 -81.99,-68.7 -140.13,-142.6 -177.59,-218.9 -37.51,-76.2 -54.08,-154.6 -54.03,-231 0,-88.7 22.16,-174.7 58.5,-253.3 27.25,-59 62.52,-114 102.77,-163.6 60.43,-74.2 132.1,-136.1 206.15,-180 37,-22 74.72,-39.5 112.12,-51.6 37.36,-12.1 74.56,-18.8 110.6,-18.9 25.56,0 50.52,3.5 74.26,11 17.79,5.6 34.86,13.6 50.67,24 23.79,15.5 44.57,36.5 61.24,62.3 16.72,25.8 29.33,56.4 37.77,91.4 4.93,20.5 7.42,40.7 7.42,60.4 0,28.2 -5.09,55.3 -14.54,80.6 -8.28,22.1 -19.87,42.8 -34.15,61.8 -24.96,33.4 -57.89,61.9 -96.32,86.1 -57.69,36.3 -127.98,63.3 -205.59,81.5 -77.61,18.1 -162.54,27.4 -249.55,27.5 -90.88,-0.1 -183.99,-10.3 -273.04,-31.6 -66.78,-16.1 -131.28,-38.5 -190.8,-67.8 -44.67,-22 -86.5,-47.9 -124.32,-78 -56.67,-45.2 -104.19,-100.1 -137.43,-165.1 -33.24,-65 -51.94,-139.9 -51.89,-223.4 0,-80.8 17.28,-169.5 54.43,-266.3 48.95,-127.8 119.6,-228.7 207.07,-306.4 65.56,-58.4 140.38,-103.8 221.95,-139 122.44,-52.7 260.08,-82.7 407.27,-99.7 147.24,-17 304.19,-21 465.51,-21 150.95,0 305.77,3.5 459.87,3.5 206.5,0 411.64,-6.4 603.96,-35.8 192.33,-29.2 371.49,-81.4 527.16,-172 108.72,-63.2 232.84,-160.9 365.54,-283.3 232.42,-214.2 491.32,-504 748.32,-817.6 385.6,-470.6 767.2,-995.3 1052.1,-1402.1 142.5,-203.4 260.9,-377.4 343.7,-500.5 41.3,-61.55 73.8,-110.34 95.9,-143.79 11,-16.72 19.5,-29.58 25.2,-38.22 2.8,-4.37 5,-7.62 6.4,-9.86 1.5,-2.18 2.2,-3.3 2.2,-3.3 11.3,-17.33 34.5,-22.21 51.8,-10.88 17.3,11.28 22.3,34.51 10.9,51.84" /></g><g
         transform="scale(1.73546)"
         id="g196"><path
           id="path198"
           style="fill:#707274;fill-opacity:1;fill-rule:nonzero;stroke:none"
           d="m 14603,9775.1 -1697,-1212.93 1269.3,-395.69 1044.1,746.25 1044.1,746.32 36.5,1329.05 -1697,-1213" /></g><g
         transform="scale(1.64924)"
         id="g200"><path
           id="path202"
           style="fill:#747576;fill-opacity:1;fill-rule:nonzero;stroke:none"
           d="M 16123.3,13177.5 12385.7,10506 c -143.3,-102.4 -344.2,-68.9 -446.6,74.3 l -72.5,101.4 c -102.3,143.2 -68.9,344.2 74.3,446.6 l 3737.7,2671.5 c 143.2,102.4 344.2,69 446.6,-74.3 l 72.4,-101.3 c 102.4,-143.3 69,-344.3 -74.3,-446.7" /></g><g
         transform="scale(1.69424)"
         id="g204"><path
           id="path206"
           style="fill:#b0b0ae;fill-opacity:1;fill-rule:nonzero;stroke:none"
           d="M 16128.1,12221.8 12489.7,9621.25 c -139.5,-99.69 -335.1,-67.11 -434.8,72.3 l -70.5,98.69 c -99.7,139.41 -67.1,335.06 72.3,434.66 l 3638.4,2600.6 c 139.4,99.7 335,67.2 434.7,-72.3 l 70.6,-98.7 c 99.6,-139.4 67.1,-335 -72.3,-434.7" /></g><g
         transform="scale(1.73924)"
         id="g208"><path
           id="path210"
           style="fill:#747576;fill-opacity:1;fill-rule:nonzero;stroke:none"
           d="M 16132.5,11315.6 12588.3,8782.29 c -135.8,-97.12 -326.4,-65.44 -423.5,70.43 l -68.7,96.08 c -97.1,135.86 -65.4,326.4 70.4,423.51 l 3544.3,2533.29 c 135.8,97.1 326.3,65.4 423.4,-70.4 l 68.7,-96.2 c 97.1,-135.8 65.4,-326.4 -70.4,-423.4" /></g><g
         transform="scale(1.78425)"
         id="g212"><path
           id="path214"
           style="fill:#b0b0ae;fill-opacity:1;fill-rule:nonzero;stroke:none"
           d="M 16136.7,10455 12681.8,7985.56 c -132.4,-94.61 -318.1,-63.72 -412.7,68.65 l -67,93.71 c -94.7,132.38 -63.7,318.18 68.6,412.84 l 3454.9,2469.44 c 132.4,94.6 318.2,63.7 412.8,-68.8 l 66.9,-93.6 c 94.7,-132.5 63.8,-318.2 -68.6,-412.8" /></g><g
         transform="scale(1.92359)"
         id="g216"><path
           id="path218"
           style="fill:#f14a7f;fill-opacity:1;fill-rule:nonzero;stroke:none"
           d="m 15895.9,453.266 h -4128.1 c -223.2,0 -404.1,180.912 -404.1,404.14 V 3194.34 c 0,223.23 180.9,404.14 404.1,404.14 h 4128.1 c 223.2,0 404.1,-180.91 404.1,-404.14 V 857.406 c 0,-223.228 -180.9,-404.14 -404.1,-404.14" /></g><g
         transform="scale(1.97345)"
         id="g220"><path
           id="path222"
           style="fill:#e33b73;fill-opacity:1;fill-rule:nonzero;stroke:none"
           d="m 15975.7,3100.31 h -4986.6 c -178.4,0 -324.3,145.94 -324.3,324.3 v 165.91 c 0,178.36 145.9,324.3 324.3,324.3 h 4986.6 c 178.4,0 324.3,-145.94 324.3,-324.3 v -165.91 c 0,-178.36 -145.9,-324.3 -324.3,-324.3" /></g><g
         transform="scale(1.87286)"
         id="g224"><path
           id="path226"
           style="fill:#e8de16;fill-opacity:1;fill-rule:nonzero;stroke:none"
           d="m 16101.9,6698.32 -492.1,-1284.83 365.4,40.58 -365.4,-1167.26 690.2,1441.33 -436.4,-81.21 238.3,1051.39" /></g><g
         transform="scale(1.53173)"
         id="g228"><path
           id="path230"
           style="fill:#e8de16;fill-opacity:1;fill-rule:nonzero;stroke:none"
           d="m 16057.7,8469.77 -601.6,-1570.97 446.8,49.68 -446.8,-1427.27 843.9,1762.32 -533.6,-99.3 291.3,1285.54" /></g><g
         transform="scale(1.73991)"
         id="g232"><path
           id="path234"
           style="fill:#e8de16;fill-opacity:1;fill-rule:nonzero;stroke:none"
           d="m 16180,7456.37 -298,-778.03 221.3,24.6 -221.3,-706.88 418,872.81 -264.3,-49.14 144.3,636.64" /></g><g
         transform="scale(1.6079)"
         id="g236"><path
           id="path238"
           style="fill:#e8de16;fill-opacity:1;fill-rule:nonzero;stroke:none"
           d="m 16170.1,7108.67 -322.4,-841.97 239.5,26.62 -239.5,-764.92 452.3,944.53 -286,-53.24 156.1,688.98" /></g><g
         transform="scale(1.91491)"
         id="g240"><path
           id="path242"
           style="fill:#f9a687;fill-opacity:1;fill-rule:nonzero;stroke:none"
           d="m 6815.52,15437.7 c 0,0 -280.65,244.3 -258.87,404.5 21.78,160.1 348.79,457.8 496.16,412.5 147.42,-45.3 375.48,-261.6 311.56,-405.1 -63.87,-143.5 -495.8,-465.4 -548.85,-411.9" /></g><g
         transform="scale(1.95503)"
         id="g244"><path
           id="path246"
           style="fill:#f9a687;fill-opacity:1;fill-rule:nonzero;stroke:none"
           d="m 6538.93,15716.4 c 0,0 64.61,274 53.05,428.8 -11.51,154.8 150.58,5.5 114.27,-277.9 -36.32,-283.3 -167.32,-150.9 -167.32,-150.9" /></g><g
         transform="scale(1.97994)"
         id="g248"><path
           id="path250"
           style="fill:#f9a687;fill-opacity:1;fill-rule:nonzero;stroke:none"
           d="m 6660.16,15684 c 0,0 414.46,503.6 512.09,559.8 97.63,56.2 -241.02,-443.4 -321.33,-535.4 -80.25,-92 -190.76,-24.4 -190.76,-24.4" /></g><g
         transform="scale(1.91651)"
         id="g252"><path
           id="path254"
           style="fill:#f9a687;fill-opacity:1;fill-rule:nonzero;stroke:none"
           d="m 7162.08,15868 c 0,0 557.89,377.7 671.12,404.9 113.17,27.1 -368.54,-368.8 -474.98,-436.5 -106.44,-67.7 -196.14,31.6 -196.14,31.6" /></g><g
         transform="scale(1.97691)"
         id="g256"><path
           id="path258"
           style="fill:#f9a687;fill-opacity:1;fill-rule:nonzero;stroke:none"
           d="m 6838.5,15688.2 c 0,0 487.33,537.3 560.27,574.5 72.94,37.3 -210.03,-458.4 -457.13,-657.6 -247.05,-199.2 -103.14,83.1 -103.14,83.1" /></g><g
         transform="scale(1.94512)"
         id="g260"><path
           id="path262"
           style="fill:#f9a687;fill-opacity:1;fill-rule:nonzero;stroke:none"
           d="m 7055.93,15843.9 c 0,0 459.66,399 544.23,427.6 84.52,28.5 -146.21,-360.4 -441.57,-538.3 -295.35,-177.9 -102.66,110.7 -102.66,110.7" /></g><g
         transform="scale(1.86241)"
         id="g264"><path
           id="path266"
           style="fill:#f09711;fill-opacity:1;fill-rule:nonzero;stroke:none"
           d="m 2486.43,13446.3 c 0,0 2668.98,289 4170.28,2853.7 l 567.22,-431 c 0,0 -1328.12,-2993.9 -3909.86,-3791 0,0 -355.58,-122.6 -692.11,35.2 -336.52,157.7 -462.55,1086.6 -168.9,1300.7" /></g><g
         transform="scale(1.43021)"
         id="g268"><path
           id="path270"
           style="fill:#da7f18;fill-opacity:1;fill-rule:nonzero;stroke:none"
           d="M 5608.15,16300 3912.37,15223.4 c 0,0 260.95,558.1 1695.78,1076.6" /></g><g
         transform="scale(2.15049)"
         id="g272"><path
           id="path274"
           style="fill:#7e2293;fill-opacity:1;fill-rule:nonzero;stroke:none"
           d="m 14124.6,368.473 c 0,0 -729.3,579.029 -689.5,1679.567 39.8,1100.54 755.8,477.34 755.8,53.06 0,0 -265.2,1060.74 106.1,1272.92 371.2,212.14 411,-384.52 411,-384.52 0,0 -145.8,1007.73 278.5,1074.04 424.3,66.26 331.4,-596.7 331.4,-596.7 0,0 238.7,1226.41 702.8,1083.93 464.1,-142.52 -13.2,-1097.19 -318.2,-1296.07 0,0 623.2,198.88 596.7,-159.13 -26.5,-358.01 -742.6,-503.88 -742.6,-503.88 0,0 543.7,118.67 649.7,-126.3 106.2,-244.97 -358,-695.8 -1034.2,-669.29 0,0 875.2,145.87 716,-331.46 C 15729,987.262 15225.1,425.947 14124.6,368.473" /></g><g
         transform="scale(2.09863)"
         id="g276"><path
           id="path278"
           style="fill:#9a41a6;fill-opacity:1;fill-rule:nonzero;stroke:none"
           d="m 14534.3,491.559 0.1,0.618 c 5.4,26.447 191.2,915.073 716.4,1848.493 267.5,475.5 493,871.33 669.7,1208.94 176.7,337.65 304.5,617.02 376.5,860.28 3,10.1 -2.8,20.72 -12.9,23.68 -10,3 -20.6,-2.77 -23.6,-12.87 -70.7,-239.06 -197.6,-516.77 -373.8,-853.41 C 15710.5,3230.64 15485.1,2835 15217.6,2359.35 14681,1405.4 14497.2,500.279 14496.9,499.136 c -2.1,-10.293 4.5,-20.395 14.9,-22.492 10.3,-2.05 20.4,4.575 22.5,14.915" /></g><g
         transform="scale(2.00038)"
         id="g280"><path
           id="path282"
           style="fill:#9a41a6;fill-opacity:1;fill-rule:nonzero;stroke:none"
           d="m 16074.7,4108.57 c 0,-0.35 -6.1,-83.44 -6.1,-207.11 0,-128.88 6.6,-301.8 33.7,-471.36 13.6,-84.79 32.3,-168.77 58,-246.11 25.8,-77.33 58.6,-148.12 100.8,-206.41 6.5,-8.95 19,-10.89 28,-4.45 8.9,6.5 10.9,19 4.4,27.95 -39,53.69 -70.4,120.92 -95.2,195.51 -37.3,111.98 -59.8,240.46 -72.9,364.73 -13.1,124.33 -16.8,244.5 -16.8,340.14 0,61.18 1.5,112.33 3,148.12 0.8,17.89 1.5,31.94 2.1,41.54 0.3,4.75 0.5,8.45 0.7,10.9 0,1.2 0.1,2.15 0.1,2.75 0.1,0.6 0.1,0.9 0.1,0.9 0.8,11 -7.5,20.59 -18.5,21.39 -11,0.8 -20.6,-7.5 -21.4,-18.49" /></g><g
         transform="scale(2.12201)"
         id="g284"><path
           id="path286"
           style="fill:#9a41a6;fill-opacity:1;fill-rule:nonzero;stroke:none"
           d="m 16271,3154.37 -0.4,-0.14 c -6.8,-3.02 -127.8,-55.61 -295.2,-107.87 -83.7,-26.11 -179.1,-52.12 -277.5,-71.82 -98.4,-19.74 -199.8,-33.08 -295.7,-34.07 -10.4,-0.09 -18.7,-8.62 -18.6,-19.04 0.1,-10.41 8.6,-18.75 19,-18.66 100.7,1.04 206,15.18 307.5,35.77 152.3,30.82 296.1,76.11 402,113.71 105.8,37.56 173.7,67.48 174,67.63 9.6,4.19 13.9,15.31 9.7,24.83 -4.2,9.52 -15.3,13.86 -24.8,9.66" /></g><g
         transform="scale(1.94367)"
         id="g288"><path
           id="path290"
           style="fill:#9a41a6;fill-opacity:1;fill-rule:nonzero;stroke:none"
           d="m 15878.6,3506.91 c 0,-0.51 15.2,-270.31 70.2,-568.41 27.5,-149.09 64.9,-305.29 115.9,-438.96 25.4,-66.83 54.3,-128.05 87.3,-180.12 33,-52.02 70.2,-94.98 112.9,-124.66 9.3,-6.43 22.1,-4.12 28.6,5.19 6.5,9.37 4.1,22.18 -5.2,28.66 -36.5,25.26 -70.6,63.95 -101.5,112.83 -54.3,85.56 -98.9,201.78 -134.3,327.63 -53.3,188.76 -86.6,399.14 -106.5,562.02 -9.9,81.45 -16.5,151.06 -20.6,200.3 -2.1,24.59 -3.4,44.09 -4.4,57.41 -0.4,6.69 -0.7,11.78 -1,15.23 -0.1,1.75 -0.2,3.04 -0.2,3.91 -0.1,0.88 -0.1,1.29 -0.1,1.29 -0.6,11.37 -10.4,20.01 -21.7,19.39 -11.3,-0.61 -20,-10.34 -19.4,-21.71" /></g><g
         transform="scale(2.10475)"
         id="g292"><path
           id="path294"
           style="fill:#9a41a6;fill-opacity:1;fill-rule:nonzero;stroke:none"
           d="m 16281,2405.08 c -2,0 -3.1,-0.19 -4.2,-0.33 -2.2,-0.34 -4.2,-0.77 -6.6,-1.34 -4.7,-1.09 -10.9,-2.75 -18.8,-4.89 -29.4,-8.03 -82.4,-23.37 -153,-41.9 -105.8,-27.8 -250.9,-62.77 -412.9,-90.75 -161.9,-27.99 -340.8,-49.03 -514.1,-48.99 -20,0 -40,0.29 -59.8,0.86 -10.5,0.28 -19.2,-7.98 -19.6,-18.44 -0.3,-10.49 8,-19.24 18.5,-19.57 20.2,-0.57 40.5,-0.86 60.9,-0.86 263,0 536,47.33 746.4,94.55 105.1,23.62 194.5,47.23 259,64.95 32.3,8.84 58.3,16.2 76.7,21.33 9.3,2.52 16.7,4.52 21.8,5.85 2.6,0.66 4.6,1.14 5.9,1.38 0.7,0.14 1.1,0.23 1.2,0.23 v 0.05 -0.05 0 0.05 -0.05 l -1.4,11.03 v -11.12 c 1,0 1.3,0.09 1.4,0.09 l -1.4,11.03 v -11.12 c 10.5,0 19,8.5 19,19 0,10.5 -8.5,19.01 -19,19.01" /></g><g
         transform="scale(1.88429)"
         id="g296"><path
           id="path298"
           style="fill:#9a41a6;fill-opacity:1;fill-rule:nonzero;stroke:none"
           d="m 15582.4,2499.56 c 0.1,-0.48 64.2,-312.53 180.6,-661.31 58.3,-174.39 129.7,-357.96 213.1,-516.75 41.7,-79.39 86.4,-152.62 134.3,-215.46 47.8,-62.84 98.7,-115.377 153.4,-153.057 9.7,-6.685 22.9,-4.245 29.5,5.415 6.7,9.659 4.3,22.872 -5.4,29.506 -49.6,34.176 -97.9,83.476 -143.8,143.876 -80.4,105.56 -153.7,244.71 -217.7,393.78 -96.2,223.64 -171.9,469.52 -223.4,659.3 -25.8,94.94 -45.6,175.82 -58.8,232.92 -6.7,28.55 -11.7,51.21 -15.1,66.66 -1.7,7.75 -2.9,13.64 -3.8,17.67 -0.4,1.96 -0.7,3.5 -0.9,4.51 -0.2,1.01 -0.4,1.49 -0.4,1.49 -2.3,11.51 -13.5,18.89 -25,16.5 -11.5,-2.33 -18.9,-13.53 -16.6,-25.05" /></g><g
         transform="scale(2.06499)"
         id="g300"><path
           id="path302"
           style="fill:#9a41a6;fill-opacity:1;fill-rule:nonzero;stroke:none"
           d="m 16268.5,1620.44 -0.4,-0.19 c -9,-4.94 -167.5,-91.48 -407.5,-179.03 -240,-87.56 -561.5,-176.08 -896,-185.52 -10.7,-0.29 -19.1,-9.21 -18.8,-19.91 0.2,-10.7 9.2,-19.12 19.9,-18.84 346,9.88 675.9,102.28 919.7,192.11 243.7,89.83 401.2,177.2 401.9,177.53 9.3,5.19 12.7,16.95 7.5,26.3 -5.2,9.4 -17,12.74 -26.3,7.55" /></g><path
         id="path304"
         style="fill:#6a8bcf;fill-opacity:1;fill-rule:nonzero;stroke:none"
         d="m 4947.56,86.4961 c 0,0 -1774.18,-488.9021 -3484.13,857.6019 C -246.512,2290.6 1582.75,2706.8 2259.88,2212.1 c 0,0 -2001.989,813.4 -1907.739,1653.2 94.246,839.9 1092.849,207.7 1092.849,207.7 0,0 -1778.236,942.1 -1389.3923,1696.5 388.8473,754.4 1338.6623,-166.6 1338.6623,-166.6 0,0 -1678.928,1810.6 -910.518,2385.1 768.408,574.5 1735.488,-1300.2 1697.368,-2018.8 0,0 409.11,1226.4 949.52,766.8 540.42,-459.7 -61.53,-1772.4 -61.53,-1772.4 0,0 444.42,1005.9 959,889.6 514.58,-116.3 693.01,-1382.5 -137.65,-2430.8 0,0 787.45,1566.7 1363.73,756.3 576.28,-810.4 884.68,-2268.9 -306.62,-4092.2039" /><path
         id="path306"
         style="fill:#336e9f;fill-opacity:1;fill-rule:nonzero;stroke:none"
         d="m 4839.01,310.496 -0.8,0.902 C 4803.18,349.898 3630.67,1650.3 2774.42,3530.09 2338.19,4487.6 1978.34,5289.1 1653.56,5948.4 1328.73,6607.6 1039.1,7124.7 742.148,7513.5 c -12.328,16.1 -35.394,19.2 -51.531,6.9 -16.133,-12.3 -19.219,-35.4 -6.894,-51.5 291.933,-382.1 580.057,-895.6 903.887,-1553 323.87,-657.4 683.59,-1458.6 1119.9,-2416.3 875.25,-1921 2075.72,-3236.905 2077.19,-3238.604 13.68,-15 36.93,-16.098 51.93,-2.398 15,13.699 16.07,36.898 2.39,51.898" /><path
         id="path308"
         style="fill:#336e9f;fill-opacity:1;fill-rule:nonzero;stroke:none"
         d="m 401.969,5433.7 c 0.816,-0.6 277.984,-236.1 650.561,-472.5 186.33,-118.2 396.5,-236.6 608.58,-326.1 212.14,-89.4 426.11,-150.3 621.85,-151.1 20.3,-0.1 36.82,16.3 36.89,36.6 0.08,20.3 -16.32,36.8 -36.62,36.9 -180.54,0.5 -386.87,58 -593.54,145.3 -310.13,130.8 -620.94,327.8 -853.487,492 -116.305,82.1 -213.125,155.9 -280.781,209.2 -33.828,26.7 -60.367,48.2 -78.414,63 -9.024,7.4 -15.922,13.1 -20.547,17 -2.313,1.9 -4.059,3.4 -5.215,4.3 -1.156,1 -1.687,1.5 -1.687,1.5 -15.477,13.1 -38.676,11.2 -51.817,-4.3 -13.14,-15.4 -11.25,-38.6 4.227,-51.8" /><path
         id="path310"
         style="fill:#336e9f;fill-opacity:1;fill-rule:nonzero;stroke:none"
         d="m 2819.31,6366.8 c 0,0 -0.18,-0.8 -0.6,-2.7 -6.44,-28.7 -64.35,-281.6 -174.64,-602.4 C 2533.9,5440.9 2370.93,5052 2156.8,4752.8 c -11.81,-16.5 -8,-39.5 8.52,-51.3 16.51,-11.8 39.47,-8 51.28,8.5 228.14,319.3 395.9,728.7 507.63,1059 111.6,330.2 166.69,581.2 166.9,582.1 4.35,19.8 -8.2,39.4 -28.03,43.7 -19.83,4.4 -39.43,-8.2 -43.78,-28" /><path
         id="path312"
         style="fill:#336e9f;fill-opacity:1;fill-rule:nonzero;stroke:none"
         d="m 741.887,3714.2 c 0.679,-0.4 330.853,-214.3 753.983,-428.7 211.6,-107.1 446.42,-214.4 675.47,-295.2 114.55,-40.4 227.66,-74.2 335.92,-97.9 108.27,-23.8 211.67,-37.5 307.11,-37.6 82.29,0.1 158.77,10.29 227.1,34 19.18,6.59 29.33,27.6 22.68,46.7 -6.66,19.2 -27.6,29.4 -46.78,22.7 -58.33,-20.2 -126.8,-29.9 -203,-29.8 -88.33,-0.1 -186.89,12.8 -291.36,35.8 -182.86,40.1 -383.75,110.8 -581.63,194.5 -296.89,125.4 -587.15,279.9 -802.89,402.9 -107.87,61.5 -197.142,115.2 -259.388,153.4 -31.122,19.1 -55.489,34.4 -72.043,44.8 -8.282,5.29 -14.61,9.3 -18.852,12 -2.121,1.4 -3.723,2.4 -4.785,3.1 -1.067,0.7 -1.563,1 -1.567,1 -17.039,11 -39.8,6.2 -50.839,-10.9 -11.039,-17 -6.172,-39.8 10.871,-50.8" /><path
         id="path314"
         style="fill:#336e9f;fill-opacity:1;fill-rule:nonzero;stroke:none"
         d="m 3889.32,5289.8 c -2.34,-3.2 -3.32,-5.2 -4.41,-7.2 -1.98,-3.8 -3.64,-7.6 -5.65,-12.4 -3.82,-9.1 -8.61,-21.4 -14.61,-37.1 -22.43,-59 -61.67,-166.5 -117.01,-306.6 -82.98,-210.1 -202.02,-493 -353.36,-791.6 -151.31,-298.6 -335,-612.9 -546.63,-885.4 -12.45,-16 -9.54,-39.11 6.49,-51.61 16.04,-12.39 39.13,-9.49 51.59,6.51 321.66,414.4 576.66,918.1 755.09,1322.9 89.19,202.4 159.15,380.1 208.42,509.4 24.63,64.6 44.09,117.1 58.12,154.3 7,18.6 12.66,33.4 16.8,43.7 2.06,5.1 3.75,9.2 4.89,11.7 0.56,1.2 0.98,2.1 1.11,2.3 l 0.02,0.1 -17.24,9.2 15.74,-11.5 c 1.36,1.9 1.48,2.3 1.5,2.3 l -17.24,9.2 15.74,-11.5 c 11.98,16.4 8.4,39.3 -7.99,51.3 -16.4,12 -39.39,8.4 -51.37,-8" /><path
         id="path316"
         style="fill:#336e9f;fill-opacity:1;fill-rule:nonzero;stroke:none"
         d="m 1491.31,1458.4 c 0.69,-0.3 374.94,-171.2 867.67,-342.4 246.38,-85.61 522.38,-171.301 796.44,-235.605 274.1,-64.399 546.12,-107.598 785.74,-107.598 151.52,0 290.24,17.203 408.77,58.601 19.17,6.7 29.28,27.598 22.58,46.797 -6.69,19.203 -27.66,29.305 -46.82,22.602 -107.51,-37.602 -238.61,-54.5 -384.53,-54.5 -230.82,0 -498.35,42 -768.93,105.601 C 2766.25,1047.3 2353.18,1190.7 2042,1310.3 c -155.6,59.79 -285.77,113.6 -376.96,152.4 -45.6,19.4 -81.46,35.1 -105.88,45.9 -12.22,5.4 -21.57,9.6 -27.86,12.4 -3.14,1.5 -5.52,2.5 -7.1,3.2 -1.58,0.8 -2.34,1.1 -2.34,1.1 -18.47,8.4 -40.27,0.3 -48.71,-18.2 -8.44,-18.4 -0.3,-40.2 18.16,-48.7" /><path
         id="path318"
         style="fill:#336e9f;fill-opacity:1;fill-rule:nonzero;stroke:none"
         d="m 4797.66,3860 -0.11,-0.9 c -2.47,-19.2 -47.3,-359.01 -181.81,-824.8 C 4481.28,2568.5 4256.96,1976.7 3897,1453.5 c -11.51,-16.7 -7.28,-39.6 9.45,-51.1 16.73,-11.5 39.62,-7.31 51.12,9.5 372.24,541.2 599.97,1150.3 735.21,1624.4 135.17,474 177.65,813.2 177.83,814.5 2.52,20.2 -11.77,38.6 -31.92,41.1 -20.14,2.5 -38.51,-11.81 -41.03,-31.9" /></g></g></svg>