<?xml version="1.0" encoding="UTF-8" standalone="no"?>
<svg
   xmlns:dc="http://purl.org/dc/elements/1.1/"
   xmlns:cc="http://creativecommons.org/ns#"
   xmlns:rdf="http://www.w3.org/1999/02/22-rdf-syntax-ns#"
   xmlns:svg="http://www.w3.org/2000/svg"
   xmlns="http://www.w3.org/2000/svg"
   viewBox="0 0 2800 2800"
   height="2800"
   width="2800"
   xml:space="preserve"
   id="svg2"
   version="1.1"><metadata
     id="metadata8"><rdf:RDF><cc:Work
         rdf:about=""><dc:format>image/svg+xml</dc:format><dc:type
           rdf:resource="http://purl.org/dc/dcmitype/StillImage" /></cc:Work></rdf:RDF></metadata><defs
     id="defs6"><clipPath
       id="clipPath70"
       clipPathUnits="userSpaceOnUse"><path
         id="path68"
         d="m 3360.72,9728.3 c -233.69,0 -467.03,91.6 -640.88,273.4 -122.37,127.9 -202.05,285.6 -232.35,456.1 -10.22,57.6 -14.8,116.6 -13.47,176.4 3.83,172.8 56.63,337 151.42,476.8 35.09,51.7 75.93,100 122.18,144.2 166.21,159 382.89,246 612.14,246 6.77,0 13.55,-0.1 20.34,-0.3 138.87,-3 272.21,-37.7 391.76,-100.4 84.23,-44.2 161.63,-102.3 229.29,-173 1.59,-1.7 3.18,-3.4 4.75,-5 125.81,-133.6 205.55,-299 231.72,-477.1 2.85,-19.4 5.07,-38.9 6.64,-58.6 2.42,-30.4 3.3,-61 2.61,-91.9 -4.29,-192.4 -69.19,-374.1 -185.17,-523.3 -26.75,-34.4 -56.22,-67.1 -88.29,-97.8 -154.06,-147.3 -347.95,-228.1 -545.59,-243 -22.33,-1.6 -44.73,-2.5 -67.1,-2.5" /></clipPath></defs><g
     transform="matrix(1.3333333,0,0,-1.3333333,0,2800)"
     id="g10"><g
       transform="scale(0.1)"
       id="g12"><path
         id="path14"
         style="fill:#f0f2f5;fill-opacity:1;fill-rule:nonzero;stroke:none"
         d="m 8720.46,12763 v 568.4 h -229.45 v -458.9 H 8261.6 v -229.4 h 338.97 c 66.21,0 119.89,53.7 119.89,119.9" /><path
         id="path16"
         style="fill:#f0f2f5;fill-opacity:1;fill-rule:nonzero;stroke:none"
         d="m 8261.6,13790.2 h 229.41 v -229.4 h 229.45 v 458.8 H 8491.01 V 14249 H 8261.6 v -458.8" /><path
         id="path18"
         style="fill:#f0f2f5;fill-opacity:1;fill-rule:nonzero;stroke:none"
         d="m 8032.19,15396.1 v -229.4 h 229.41 v -688.3 h 229.41 V 14249 h 229.45 v 229.4 229.4 h -229.45 v 229.4 h 229.45 v 458.9 H 8261.6 8032.19" /><path
         id="path20"
         style="fill:#f0f2f5;fill-opacity:1;fill-rule:nonzero;stroke:none"
         d="m 8032.19,13101.9 h -229.42 v 229.5 h 229.42 v -229.5 m -917.65,688.3 v 458.8 h 229.41 v -229.4 h 229.41 v 229.4 h 229.41 v -458.8 h -688.23 m 458.82,-458.8 h -458.82 v 229.4 h 458.82 v -229.4 m 458.83,1147 h -458.83 v 229.4 h -229.41 v -229.4 h -229.41 v 229.4 h -229.41 v -688.2 h -229.41 v 229.4 h -688.24 v -229.4 h -229.41 v -229.4 h 229.41 v -458.8 h 229.42 v 688.2 h 229.41 v -229.4 h 458.82 v -229.4 h -458.82 v -229.4 h 229.41 v -458.9 h 229.41 v -229.4 h 458.82 v 229.4 h -229.41 v 229.4 h 458.82 v -229.4 h 229.41 v -229.4 h 229.42 v 229.4 h 229.41 v 688.3 h -229.41 v 688.2 h 229.41 v 229.4 h -229.41" /><path
         id="path22"
         style="fill:#f0f2f5;fill-opacity:1;fill-rule:nonzero;stroke:none"
         d="m 8032.19,14707.8 v 229.4 h -229.42 v -229.4 h 229.42" /><g
         transform="scale(1.07122)"
         id="g24"><path
           id="path26"
           style="fill:#f0f2f5;fill-opacity:1;fill-rule:nonzero;stroke:none"
           d="m 7926.52,15015 h -1070.8 v 1070.8 h 1070.8 z m -1284.96,1285 v -1499.1 h 1499.16 v 1387.2 c 0,61.8 -50.12,111.9 -111.92,111.9 H 6641.56" /></g><g
         transform="scale(1.04307)"
         id="g28"><path
           id="path30"
           style="fill:#e1e6eb;fill-opacity:1;fill-rule:nonzero;stroke:none"
           d="m 7920.5,16300 h -659.83 v -659.8 h 659.83 v 659.8" /></g><path
         id="path32"
         style="fill:#f0f2f5;fill-opacity:1;fill-rule:nonzero;stroke:none"
         d="m 6885.13,16084.3 h -229.41 v -229.4 h 229.41 v 229.4" /><g
         transform="scale(1.07122)"
         id="g34"><path
           id="path36"
           style="fill:#f0f2f5;fill-opacity:1;fill-rule:nonzero;stroke:none"
           d="m 5784.91,16085.8 h 214.16 v -214.1 h -214.16 z m 0,-428.3 h 214.16 v -214.1 h 214.17 v -214.2 h 214.16 v 428.3 h -214.16 v 214.2 H 6427.4 V 16300 H 5356.6 v -428.3 h 214.16 v -428.3 h 214.15 v 214.1" /></g><path
         id="path38"
         style="fill:#f0f2f5;fill-opacity:1;fill-rule:nonzero;stroke:none"
         d="m 5738.07,12643.1 h 688.23 v 229.4 h -229.41 v 229.4 h -229.41 v 229.5 h -229.41 v -688.3" /><path
         id="path40"
         style="fill:#f0f2f5;fill-opacity:1;fill-rule:nonzero;stroke:none"
         d="M 4132.15,14019.6 H 5279.21 V 12872.5 H 4132.15 Z M 4022.62,12643.1 H 5508.66 V 14249 H 3902.74 v -1486 c 0,-66.2 53.67,-119.9 119.88,-119.9" /><path
         id="path42"
         style="fill:#f0f2f5;fill-opacity:1;fill-rule:nonzero;stroke:none"
         d="m 5508.66,15625.5 h -458.87 v -229.4 h 458.87 v 229.4" /><g
         transform="scale(1.01492)"
         id="g44"><path
           id="path46"
           style="fill:#f0f2f5;fill-opacity:1;fill-rule:nonzero;stroke:none"
           d="m 6105.81,14265.6 v 226 h -226.04 v 452.2 h 452.07 v -452.2 h 226.05 v 226.1 h 452.08 v 226.1 h 452.07 v -226.1 h 226.04 v 226.1 226 h -226.04 v 226 h -678.11 v -452 h -226.04 v 226 452.1 h -226.05 v 452.1 h -226.03 v -452.1 h -226.04 v 678.1 h -226.04 v -1808.4 h -678.17 v -226 h 678.17 v -226 h 226.04 v 226 h 226.04" /></g><path
         id="path48"
         style="fill:#e1e6eb;fill-opacity:1;fill-rule:nonzero;stroke:none"
         d="m 4361.56,13101.9 h 688.23 v 688.3 h -688.23 v -688.3" /><path
         id="path50"
         style="fill:#f0f2f5;fill-opacity:1;fill-rule:nonzero;stroke:none"
         d="m 3902.74,15625.5 v -458.8 h 458.82 v 229.4 h 229.42 v 229.4 h -688.24" /><path
         id="path52"
         style="fill:#f0f2f5;fill-opacity:1;fill-rule:nonzero;stroke:none"
         d="m 4820.39,14937.2 h 688.27 v 229.5 h -458.87 v 229.4 h -458.81 v -688.3 h -229.42 v -3.5 h -235.02 v 229.4 h -223.8 v -455.3 h 917.65 v 458.8" /><g
         transform="scale(1.07122)"
         id="g54"><path
           id="path56"
           style="fill:#f0f2f5;fill-opacity:1;fill-rule:nonzero;stroke:none"
           d="m 4928.24,15015 h -1070.8 v 1070.8 h 1070.8 z m 214.2,1285 H 3755.19 c -61.81,0 -111.91,-50.1 -111.91,-111.9 V 14800.9 H 5142.44 V 16300" /></g><g
         transform="scale(1.04307)"
         id="g58"><path
           id="path60"
           style="fill:#e1e6eb;fill-opacity:1;fill-rule:nonzero;stroke:none"
           d="m 4841.29,16300 h -659.81 v -659.8 h 659.81 v 659.8" /></g><path
         id="path62"
         style="fill:#f0f2f5;fill-opacity:1;fill-rule:nonzero;stroke:none"
         d="m 3380.1,11500.9 c 236.73,-5.1 457.42,-102.4 621.02,-273.4 163.74,-171.2 251.05,-395.8 245.75,-632.6 -5.28,-236.8 -102.39,-457.4 -273.51,-621.1 -353.18,-337.9 -915.67,-325.4 -1253.52,27.9 -163.74,171.1 -251.04,395.7 -245.88,632.6 5.29,236.7 102.4,457.3 273.66,620.9 171.12,163.7 395.73,251 632.48,245.7 m -796.76,-74 c -217.02,-207.5 -340.14,-487.3 -346.86,-787.4 -6.58,-300.3 104.08,-585.1 311.68,-802.1 400.76,-418.9 1050.32,-459.8 1499.2,-112.7 l 482.23,-504.3 c -3.66,-48.8 -7.95,-77.4 28.42,-115.4 l 61.71,-64.4 569.55,-595.5 c 67.98,-71.1 180.75,-73.6 251.88,-5.6 35.51,34.1 53.99,79.3 55,124.8 1,45.6 -15.36,91.6 -49.4,127.1 l -602.92,630.3 -28.35,29.6 c -36.38,38.1 -61.3,31.3 -110.04,29.6 l -486.38,508 c 166.14,195.8 259.51,440.5 265.3,700.7 6.71,300.2 -103.95,585.1 -311.55,802.1 -207.6,217 -487.23,340.1 -787.5,346.8 -300.14,6.6 -584.97,-104 -801.97,-311.6" /><g
         id="g64"><g
           clip-path="url(#clipPath70)"
           id="g66"><path
             id="path72"
             style="fill:#ffffff;fill-opacity:1;fill-rule:nonzero;stroke:none"
             d="m 2472.69,9728.3 h 1774.87 v 1772.86 H 2472.69 Z" /></g></g><path
         id="path74"
         style="fill:#f4f5f8;fill-opacity:1;fill-rule:nonzero;stroke:none"
         d="m 3360.68,9728.3 c -233.69,0 -466.98,91.5 -640.87,273.3 -122.38,127.9 -202.06,285.7 -232.32,456.2 30.3,-170.5 109.98,-328.2 232.35,-456.1 173.85,-181.8 407.19,-273.4 640.88,-273.4 22.37,0 44.77,0.9 67.1,2.5 -22.36,-1.6 -44.75,-2.5 -67.14,-2.5 m 701.02,343.3 c 115.98,149.2 180.88,330.9 185.17,523.3 0.69,30.9 -0.19,61.5 -2.61,91.9 2.42,-30.4 3.31,-61 2.62,-91.9 -4.26,-192.4 -69.19,-374.1 -185.18,-523.3 m 175.92,673.8 c -26.17,178.1 -105.91,343.5 -231.72,477.1 125.83,-133.5 205.55,-299 231.72,-477.1 M 2625.44,11111 c 35.07,51.7 75.89,100 122.12,144.2 166.27,159.1 383.05,246 612.39,246 6.73,0 13.43,-0.1 20.18,-0.2 138.88,-3.1 272.19,-37.8 391.73,-100.5 -119.55,62.7 -252.89,97.4 -391.76,100.4 -6.79,0.2 -13.57,0.3 -20.34,0.3 -229.25,0 -445.93,-87 -612.14,-246 -46.25,-44.2 -87.09,-92.5 -122.18,-144.2" /><path
         id="path76"
         style="fill:#e1e6eb;fill-opacity:1;fill-rule:nonzero;stroke:none"
         d="m 4626.34,9353.8 c 52.74,50.4 137.2,51 188.05,-1.3 l 1.09,-1.2 28.34,-29.6 602.93,-630.3 c 34.04,-35.5 50.4,-81.5 49.4,-127.1 -1.01,-45.5 -19.49,-90.7 -55,-124.8 -71.14,-68 -183.9,-65.5 -251.88,5.6 l -569.55,595.5 -61.71,64.4 -1.15,1.3 c -49.97,53.1 -45.61,137.4 7.13,187.9 l 62.35,59.6" /><g
         transform="scale(1.06575)"
         id="g78"><path
           id="path80"
           style="fill:#f0f2f5;fill-opacity:1;fill-rule:nonzero;stroke:none"
           d="m 15708.2,13599.2 h -2054.9 c -178.3,0 -322.9,144.6 -322.9,322.9 v 2055 c 0,178.3 144.6,322.9 322.9,322.9 h 2054.9 c 178.4,0 323,-144.6 323,-322.9 v -2055 c 0,-178.3 -144.6,-322.9 -323,-322.9" /></g><g
         transform="scale(1.035)"
         id="g82"><path
           id="path84"
           style="fill:#e1e6eb;fill-opacity:1;fill-rule:nonzero;stroke:none"
           d="m 14667.8,16079.7 c -13.3,0 -25.9,7.8 -31.5,20.7 -7.6,17.5 0.4,37.7 17.8,45.2 14.6,6.4 364.1,154.4 855.6,50.9 18.6,-3.9 30.5,-22.2 26.6,-40.7 -3.9,-18.6 -22.2,-30.4 -40.7,-26.6 -468.9,98.7 -810.8,-45.2 -814.2,-46.7 -4.4,-1.9 -9.1,-2.8 -13.6,-2.8" /></g><g
         transform="scale(1.04018)"
         id="g86"><path
           id="path88"
           style="fill:#e1e6eb;fill-opacity:1;fill-rule:nonzero;stroke:none"
           d="m 14862.1,16204.6 c -16.2,0 -30.6,11.6 -33.6,28.1 -3.4,18.6 8.9,36.4 27.6,39.8 6.1,1.1 153.7,27.5 304.2,17.7 18.9,-1.2 33.2,-17.4 31.9,-36.3 -1.2,-18.9 -17.3,-33.3 -36.3,-31.9 -142.1,9.2 -286.2,-16.6 -287.6,-16.8 -2.1,-0.4 -4.2,-0.6 -6.2,-0.6" /></g><g
         transform="scale(1.02163)"
         id="g90"><path
           id="path92"
           style="fill:#e1e6eb;fill-opacity:1;fill-rule:nonzero;stroke:none"
           d="m 15901.2,16143.8 c -4.2,0 -8.5,0.8 -12.7,2.4 -103,40.3 -210.2,67.9 -318.9,82.3 -19.1,2.5 -32.5,20 -30,39.1 2.5,19 20,32.4 39.1,29.9 114.3,-15 227,-44.1 335.2,-86.4 18,-7 26.8,-27.2 19.7,-45.1 -5.3,-13.8 -18.5,-22.2 -32.4,-22.2" /></g><g
         transform="scale(1.02289)"
         id="g94"><path
           id="path96"
           style="fill:#e1e6eb;fill-opacity:1;fill-rule:nonzero;stroke:none"
           d="m 14655.1,16041.1 c -11.7,0 -23.3,6 -29.8,16.9 -9.9,16.4 -4.5,37.8 11.9,47.7 13.2,7.9 328.2,194.3 766.2,183.8 19.1,-0.4 34.4,-16.3 33.9,-35.5 -0.4,-19.2 -16.2,-35.1 -35.6,-34 -417.8,9.6 -725.6,-172.1 -728.7,-173.9 -5.6,-3.4 -11.8,-5 -17.9,-5" /></g><g
         transform="scale(1.01664)"
         id="g98"><path
           id="path100"
           style="fill:#e1e6eb;fill-opacity:1;fill-rule:nonzero;stroke:none"
           d="m 14655.1,15913 c -10,0 -20,4.3 -26.9,12.6 -12.4,14.8 -10.4,36.9 4.4,49.3 6.5,5.5 164.4,135.9 426.3,214.2 241.5,72.2 620.2,110.9 1052.6,-114.9 17.1,-8.9 23.7,-30.1 14.7,-47.2 -8.9,-17.1 -30,-23.8 -47.2,-14.8 -329.3,172 -664.8,209.2 -997.2,110.7 -249,-73.8 -402.8,-200.5 -404.3,-201.7 -6.6,-5.5 -14.5,-8.2 -22.4,-8.2" /></g><g
         transform="scale(1.01037)"
         id="g102"><path
           id="path104"
           style="fill:#e1e6eb;fill-opacity:1;fill-rule:nonzero;stroke:none"
           d="m 16260.3,15881.7 c -7.6,0 -15.4,2.5 -21.9,7.7 -255.4,203.8 -572.3,283.8 -892.4,225.1 -19.1,-3.6 -37.5,9.1 -41,28.3 -3.4,19.1 9.1,37.4 28.3,40.9 340.4,62.5 677.5,-22.5 949.1,-239.2 15.1,-12.2 17.6,-34.3 5.5,-49.5 -7,-8.7 -17.2,-13.3 -27.6,-13.3" /></g><g
         transform="scale(1.00197)"
         id="g106"><path
           id="path108"
           style="fill:#e1e6eb;fill-opacity:1;fill-rule:nonzero;stroke:none"
           d="m 14818.6,15878 c -7.1,0 -14.3,2.1 -20.5,6.5 -15.9,11.3 -19.8,33.5 -8.4,49.5 112.7,159.5 323.8,294.4 564.5,360.7 18.9,5.3 38.5,-5.9 43.7,-24.8 5.2,-18.9 -5.9,-38.4 -24.8,-43.6 -222.1,-61.3 -423.4,-189 -525.5,-333.3 -6.8,-9.8 -17.8,-15 -29,-15" /></g><g
         transform="scale(1.01125)"
         id="g110"><path
           id="path112"
           style="fill:#e1e6eb;fill-opacity:1;fill-rule:nonzero;stroke:none"
           d="m 16261.3,15659.1 c -9.1,0 -18.2,3.5 -25,10.5 -101.9,103 -211.9,181.7 -326.8,233.9 -17.7,8 -25.5,28.9 -17.5,46.6 8.1,17.7 28.9,25.5 46.7,17.5 122.6,-55.8 239.6,-139.4 347.7,-248.5 13.6,-13.8 13.5,-36.1 -0.3,-49.8 -6.9,-6.8 -15.9,-10.2 -24.8,-10.2" /></g><path
         id="path114"
         style="fill:#e1e6eb;fill-opacity:1;fill-rule:nonzero;stroke:none"
         d="m 14881.4,15621.5 c -3,0 -6,0.4 -9,1.1 -19,5 -30.4,24.5 -25.4,43.5 66,251.8 340.5,526.8 737.3,564.8 152,14.6 296.9,-0.1 430.7,-43.7 18.7,-6.1 28.9,-26.2 22.8,-44.9 -6.1,-18.7 -26.2,-28.9 -44.9,-22.8 -126.1,41.2 -257.6,54.4 -401.7,40.6 -364.5,-35 -615.6,-284.1 -675.4,-512.1 -4.2,-15.9 -18.6,-26.5 -34.4,-26.5" /><path
         id="path116"
         style="fill:#e1e6eb;fill-opacity:1;fill-rule:nonzero;stroke:none"
         d="m 16256.9,15264.3 c -19.2,0 -35,15.3 -35.5,34.6 -6.4,226.4 -73.7,388.4 -200.1,481.3 -141.9,104.3 -335.4,101 -458,66.5 -96.4,-27.2 -172,-63.7 -224.8,-108.7 -15,-12.7 -37.5,-10.9 -50.2,4 -12.7,15 -10.9,37.4 4,50.2 61.6,52.4 143.9,92.6 251.7,123 138.1,38.9 356.9,41.8 519.4,-77.7 145,-106.6 222.1,-287.1 229.1,-536.6 0.6,-19.6 -14.9,-36 -34.6,-36.6 h -1" /><path
         id="path118"
         style="fill:#e1e6eb;fill-opacity:1;fill-rule:nonzero;stroke:none"
         d="m 15239.3,15052 c -1.9,0 -3.8,0.2 -5.6,0.5 -19.5,3.1 -32.7,21.3 -29.6,40.7 8.4,52.4 -3.9,121.4 -16.9,194.5 -23.1,130.2 -49.3,277.7 23.2,406.3 9.6,17.1 31.3,23.2 48.4,13.5 17.2,-9.6 23.2,-31.3 13.6,-48.4 -60,-106.4 -37.2,-234.8 -15.1,-358.9 14.1,-79.2 27.3,-154 17.1,-218.2 -2.8,-17.5 -17.9,-30 -35.1,-30" /><path
         id="path120"
         style="fill:#e1e6eb;fill-opacity:1;fill-rule:nonzero;stroke:none"
         d="m 16102.4,15076.9 h -0.9 c -19.7,0.5 -35.2,16.9 -34.6,36.5 4.4,166.4 -12.8,301.8 -51.4,402.5 -7,18.3 2.2,38.9 20.5,45.9 18.4,7 39,-2.1 46,-20.5 41.9,-109.4 60.7,-254 56,-429.8 -0.5,-19.3 -16.3,-34.6 -35.6,-34.6" /><path
         id="path122"
         style="fill:#e1e6eb;fill-opacity:1;fill-rule:nonzero;stroke:none"
         d="m 15412.8,14957.1 c -1.1,0 -2.2,0 -3.3,0.1 -19.5,1.8 -33.9,19.1 -32.1,38.7 9.9,107.6 -5.3,213 -18.7,306.1 -30,209.2 -58.4,406.8 241,483.2 99.8,25.4 285.9,44 412.6,-117.5 12.1,-15.4 9.4,-37.8 -6.1,-49.9 -15.4,-12.2 -37.8,-9.5 -49.9,6 -96.6,123.2 -237.7,118.3 -339,92.4 -237.5,-60.5 -218.9,-189.9 -188.1,-404.1 13.9,-96.9 29.7,-206.8 19,-322.7 -1.7,-18.5 -17.2,-32.3 -35.4,-32.3" /><path
         id="path124"
         style="fill:#e1e6eb;fill-opacity:1;fill-rule:nonzero;stroke:none"
         d="m 15927.9,14984 c -1,0 -2,0 -2.9,0.1 -19.6,1.6 -34.2,18.7 -32.6,38.3 28.7,355.3 -36.6,486.9 -96.5,534.7 -48.7,38.8 -104.5,29.4 -133.5,20.3 -101.6,-32 -92.8,-113.8 -64.9,-281.1 5,-29.4 10,-59.8 14.4,-91.5 2.6,-19.4 -11,-37.4 -30.4,-40 -19.5,-2.6 -37.5,10.9 -40.1,30.4 -4.2,30.6 -9.2,60.5 -14,89.4 -26.5,158.8 -51.5,308.7 113.7,360.7 42.4,13.3 124.8,26.8 199.2,-32.6 106.7,-85.2 148.1,-285.7 123,-596 -1.5,-18.6 -17.1,-32.7 -35.4,-32.7" /><path
         id="path126"
         style="fill:#e1e6eb;fill-opacity:1;fill-rule:nonzero;stroke:none"
         d="m 15579.8,14925.2 c -1.8,0 -3.7,0.2 -5.6,0.5 -19.4,3.1 -32.6,21.3 -29.5,40.7 6.6,41.6 8.5,85.9 5.9,135.2 -1,19.7 14.1,36.4 33.7,37.4 19.9,1.3 36.4,-14 37.4,-33.6 2.8,-54.4 0.6,-103.5 -6.8,-150.1 -2.8,-17.6 -17.9,-30.1 -35.1,-30.1" /><g
         transform="scale(1.00785)"
         id="g128"><path
           id="path130"
           style="fill:#e1e6eb;fill-opacity:1;fill-rule:nonzero;stroke:none"
           d="m 16262,15372.4 c -17,0 -32,12.2 -34.8,29.5 -73.9,448.9 -491.4,493.6 -617.5,496.7 -19.5,0.5 -34.9,16.6 -34.4,36.1 0.4,19.5 16.6,35.6 36.1,34.5 139.9,-3.4 602.7,-53.4 685.4,-555.8 3.2,-19.2 -9.8,-37.4 -29,-40.6 -1.9,-0.3 -3.9,-0.4 -5.8,-0.4" /></g><path
         id="path132"
         style="fill:#e1e6eb;fill-opacity:1;fill-rule:nonzero;stroke:none"
         d="m 15043.4,15236.2 c -16.2,0 -30.8,11 -34.6,27.4 -3,12.7 -71.1,312.9 96.6,553.1 106.1,152.1 281.4,243.9 521.2,273.1 19.7,2.3 37.3,-11.5 39.7,-31.1 2.3,-19.5 -11.6,-37.2 -31.1,-39.6 -218.6,-26.5 -377.1,-108.2 -471.2,-242.6 -149.5,-213.8 -86.6,-493.8 -86,-496.6 4.5,-19.1 -7.4,-38.3 -26.5,-42.7 -2.7,-0.7 -5.5,-1 -8.1,-1" /><path
         id="path134"
         style="fill:#e1e6eb;fill-opacity:1;fill-rule:nonzero;stroke:none"
         d="m 15756.1,14917.9 -1.8,0.1 c -19.7,1 -34.8,17.7 -33.8,37.3 11.9,237 -48.1,520.6 -48.8,523.4 -4.1,19.2 8.2,38.2 27.4,42.3 19.1,4.1 38.1,-8.1 42.2,-27.4 2.6,-11.9 62.6,-295.6 50.3,-541.9 -1,-19 -16.7,-33.8 -35.5,-33.8" /><g
         transform="scale(1.14859)"
         id="g136"><path
           id="path138"
           style="fill:#f0f2f5;fill-opacity:1;fill-rule:nonzero;stroke:none"
           d="m 11192.2,15202 h 260.5 l -260.5,311.1 v 651.4 c 0,74.8 -60.7,135.5 -135.5,135.5 H 8520.29 c -74.84,0 -135.49,-60.7 -135.49,-135.5 v -827 c 0,-74.9 60.65,-135.5 135.49,-135.5 h 2671.91" /></g><g
         transform="scale(1.13114)"
         id="g140"><path
           id="path142"
           style="fill:#e1e6eb;fill-opacity:1;fill-rule:nonzero;stroke:none"
           d="m 9323.94,15921 59.68,79.9 v -79.9 z m 192.73,379 h -0.89 l -385.36,-478.2 v -1 h 253.2 v -132 h 133.05 v 132 h 71.96 v 100.2 h -71.96 v 379" /></g><g
         transform="scale(1.13114)"
         id="g144"><path
           id="path146"
           style="fill:#e1e6eb;fill-opacity:1;fill-rule:nonzero;stroke:none"
           d="m 10017.2,15904.7 c -7,-28 -18.98,-50 -35.96,-66.1 -16.97,-16.1 -40.66,-24.1 -71.07,-24.1 -29.71,0 -53.14,8 -70.11,24.1 -17.06,16.1 -28.91,37.8 -35.54,65.1 -6.72,27.4 -9.99,57.7 -9.99,91.1 0,33.4 3.27,63.5 9.99,90.2 6.63,26.7 18.48,48 35.54,63.8 16.97,15.8 40.4,23.7 70.11,23.7 30.41,0 54.1,-7.8 71.07,-23.3 16.98,-15.4 28.96,-36.2 35.96,-62.4 7,-26.1 10.5,-55.8 10.5,-89.2 0,-34 -3.5,-65 -10.5,-92.9 z m 72.9,321.1 c -23.4,25.2 -50.4,43.8 -81.1,56 -30.68,12.1 -63.3,18.2 -97.95,18.2 -36.42,0 -70.11,-5 -101.05,-15 -31.03,-10.1 -57.91,-26.9 -80.63,-50.6 -22.81,-23.7 -40.58,-55.1 -53.31,-94.3 -12.72,-39.1 -19.09,-87.9 -19.09,-146.2 0,-52.2 6.63,-97.6 19.98,-136.2 13.35,-38.5 31.74,-70.4 55.16,-95.6 23.34,-25.2 50.4,-43.9 81.07,-56 30.68,-12.2 63.3,-18.3 97.87,-18.3 34.65,0 67.1,5.8 97.55,17.4 30.3,11.5 57.3,29.6 81,54.2 23.7,24.6 42.2,56.3 55.6,95.2 13.4,38.8 20,85.3 20,139.3 0,52.3 -6.6,97.6 -20,136.2 -13.4,38.6 -31.7,70.5 -55.1,95.7" /></g><g
         transform="scale(1.13114)"
         id="g148"><path
           id="path150"
           style="fill:#e1e6eb;fill-opacity:1;fill-rule:nonzero;stroke:none"
           d="m 10399.8,15921 59.6,79.9 v -79.9 z m 192.7,0 v 379 h -0.9 l -385.4,-478.2 v -1 h 253.2 v -132 h 133.1 v 132 h 71.9 v 100.2 h -71.9" /></g><path
         id="path152"
         style="fill:#f0f2f5;fill-opacity:1;fill-rule:nonzero;stroke:none"
         d="m 4889.15,5971 v 208.4 c 0,124.6 -72.07,238 -184.93,290.9 l -238.75,112 c -88.67,41.5 -145.3,130.6 -145.3,228.6 l 60.18,60.2 c 40.87,40.8 63.83,96.3 63.83,154.1 v 233.1 c 0,57.8 -22.96,113.3 -63.83,154.1 -40.87,40.9 -96.3,63.8 -154.1,63.8 h -64.48 38.01 -64.48 c -57.8,0 -113.22,-22.9 -154.09,-63.8 -40.87,-40.8 -63.83,-96.3 -63.83,-154.1 v -233.1 c 0,-57.8 22.96,-113.3 63.83,-154.1 l 60.18,-60.2 c 0,-98 -56.63,-187.1 -145.31,-228.6 l -238.75,-112 C 3544.48,6417.4 3472.41,6304 3472.41,6179.4 V 5971 h 1416.74" /><g
         transform="scale(1.13683)"
         id="g154"><path
           id="path156"
           style="fill:#f0f2f5;fill-opacity:1;fill-rule:nonzero;stroke:none"
           d="m 16300,7450.64 v 116.73 c 0,69.76 -40.3,133.18 -103.4,162.82 l -133.8,62.63 c -49.6,23.31 -81.2,73.19 -81.2,127.99 l 33.7,33.69 c 22.8,22.87 35.7,53.92 35.7,86.2 v 130.54 c 0,32.37 -12.9,63.34 -35.7,86.21 -22.9,22.87 -54,35.8 -86.3,35.8 h -36.1 21.3 -36.1 c -32.3,0 -63.4,-12.93 -86.3,-35.8 -22.8,-22.87 -35.7,-53.84 -35.7,-86.21 V 8040.7 c 0,-32.28 12.9,-63.33 35.7,-86.2 l 33.7,-33.69 c 0,-54.8 -31.6,-104.68 -81.3,-127.99 l -133.7,-62.63 c -63.1,-29.64 -103.4,-93.06 -103.4,-162.82 v -116.73 h 792.9" /></g><g
         transform="scale(1.07634)"
         id="g158"><path
           id="path160"
           style="fill:#f0f2f5;fill-opacity:1;fill-rule:nonzero;stroke:none"
           d="m 16137.3,6058.66 c -35.4,0 -70.9,12.73 -99,38.56 -355.2,326.01 -816.8,505.51 -1299.5,505.51 -482.7,0 -944.2,-179.59 -1299.7,-505.51 -59.5,-54.72 -152.3,-50.73 -206.9,8.92 -54.7,59.64 -50.7,152.27 8.9,206.9 409.6,375.72 941.5,582.62 1497.7,582.62 556.3,0 1088.1,-206.9 1497.6,-582.62 59.6,-54.63 63.6,-147.35 8.9,-206.9 -28.9,-31.5 -68.4,-47.48 -108,-47.48" /></g><g
         transform="scale(1.05233)"
         id="g162"><path
           id="path164"
           style="fill:#f0f2f5;fill-opacity:1;fill-rule:nonzero;stroke:none"
           d="m 16134.7,5658.67 c -39.2,0 -78.3,15.3 -107.8,45.81 -251.5,260.75 -589.6,404.34 -951.8,404.34 -362.2,0 -700.3,-143.59 -951.8,-404.15 -57.4,-59.58 -152.3,-61.3 -211.8,-3.8 -59.6,57.49 -61.3,152.32 -3.8,211.81 308.5,319.77 723.1,495.76 1167.4,495.76 444.3,0 859,-176.09 1167.5,-495.85 57.4,-59.58 55.7,-154.42 -3.8,-211.91 -29.1,-28.04 -66.6,-42.01 -104.1,-42.01" /></g><g
         transform="scale(1.02816)"
         id="g166"><path
           id="path168"
           style="fill:#f0f2f5;fill-opacity:1;fill-rule:nonzero;stroke:none"
           d="m 16125.9,5228.47 c -48.5,0 -96.3,22.95 -126,65.84 -129.9,186.84 -343.1,298.4 -570.4,298.4 -227.2,0 -440.5,-111.56 -570.5,-298.4 -48.4,-69.44 -144,-86.56 -213.5,-38.22 -69.5,48.44 -86.6,143.95 -38.2,213.49 187.4,269.12 494.7,429.8 822.2,429.8 327.7,0 635,-160.78 822.2,-430.09 48.3,-69.54 31.1,-165.05 -38.5,-213.39 -26.6,-18.58 -57.1,-27.43 -87.3,-27.43" /></g><path
         id="path170"
         style="fill:#f0f2f5;fill-opacity:1;fill-rule:nonzero;stroke:none"
         d="m 16237,5036.1 c 0,-206 -167,-373.1 -373,-373.1 -206.1,0 -373.1,167.1 -373.1,373.1 0,206 167,373 373.1,373 206,0 373,-167 373,-373" /><g
         transform="scale(1.08153)"
         id="g172"><path
           id="path174"
           style="fill:#e1e6eb;fill-opacity:1;fill-rule:nonzero;stroke:none"
           d="m 16300,6374.96 c 0,-246.5 -199.9,-446.31 -446.3,-446.31 -246.5,0 -446.3,199.81 -446.3,446.31 0,246.51 199.8,446.32 446.3,446.32 246.4,0 446.3,-199.81 446.3,-446.32" /></g><g
         transform="scale(1.07049)"
         id="g176"><path
           id="path178"
           style="fill:#ffffff;fill-opacity:1;fill-rule:nonzero;stroke:none"
           d="m 15925,6225.09 -186.6,187.2 c -11.6,11.68 -11.6,30.45 0.1,42.04 l 59.6,59.6 c 11.6,11.68 30.5,11.68 42.1,0 l 105.8,-106.49 240.7,239.32 c 11.7,11.59 30.4,11.5 42,-0.09 l 59.6,-59.6 c 11.7,-11.67 11.7,-30.55 0,-42.13 L 15967.1,6225 c -11.6,-11.59 -30.5,-11.59 -42.1,0.09" /></g><g
         transform="scale(1.17174)"
         id="g180"><path
           id="path182"
           style="fill:#e1e6eb;fill-opacity:1;fill-rule:nonzero;stroke:none"
           d="m 14931.1,11462.8 -1272.9,-604.2 c -27.8,-13.2 -42,-44.6 -33.4,-74.2 72.2,-248.2 428.7,-1330.54 1297.7,-1923.49 21.5,-14.59 49.7,-14.59 71.2,0 868.9,592.95 1225.4,1675.29 1297.7,1923.49 8.6,29.6 -5.7,61 -33.5,74.3 l -1272.9,604.1 c -17,8.1 -36.8,8.1 -53.9,0" /></g><g
         transform="scale(1.15101)"
         id="g184"><path
           id="path186"
           style="fill:#f0f2f5;fill-opacity:1;fill-rule:nonzero;stroke:none"
           d="m 15200,11382 -1002.2,-475.7 c -28.4,-13.5 -42.9,-45.8 -33.8,-76 64.7,-217.6 350,-1055.26 1027.1,-1522.23 21.9,-15.12 50.9,-15.12 72.8,0 677,466.97 962.4,1304.63 1027.1,1522.23 9,30.2 -5.4,62.5 -33.9,76 l -1002.2,475.7 c -17.4,8.2 -37.5,8.2 -54.9,0" /></g><g
         transform="scale(1.11171)"
         id="g188"><path
           id="path190"
           style="fill:#e1e6eb;fill-opacity:1;fill-rule:nonzero;stroke:none"
           d="m 15701.7,10411.2 -297.7,298.7 c -18.4,18.6 -18.4,48.6 0.1,67.1 l 95.1,95.1 c 18.6,18.6 48.7,18.5 67.2,-0.1 l 168.8,-169.9 384,381.9 c 18.6,18.4 48.6,18.4 67.1,-0.1 l 95.2,-95.2 c 18.5,-18.6 18.5,-48.7 -0.1,-67.2 l -512.6,-510.5 c -18.5,-18.5 -48.5,-18.4 -67.1,0.2" /></g><g
         transform="scale(1.00811)"
         id="g192"><path
           id="path194"
           style="fill:#ffffff;fill-opacity:1;fill-rule:nonzero;stroke:none"
           d="M 13359.7,15590.4 V 5290.3 c 0,-46.52 -4.5,-92.15 -13,-136.1 -20.7,-105.94 -64.8,-203.45 -126.8,-286.77 -129.4,-173.99 -336.4,-286.67 -569.7,-286.67 H 8527.27 c -233.4,0 -440.42,112.68 -569.68,286.67 -62.08,83.32 -106.18,180.83 -126.79,286.77 -8.65,43.95 -13.14,89.58 -13.14,136.1 v 10300.1 c 0,8.8 0.16,17.6 0.59,26.4 0.08,3.5 0.26,7.2 0.42,10.7 19.25,374.7 329.16,672.5 708.6,672.5 h 4122.93 c 379.3,0 689.2,-297.8 708.6,-672.5 0.2,-3.5 0.3,-7.2 0.4,-10.7 0.4,-8.8 0.5,-17.6 0.5,-26.4" /></g><path
         id="path196"
         style="fill:#f0f2f5;fill-opacity:1;fill-rule:nonzero;stroke:none"
         d="m 13327.1,4906.9 c -130.4,-175.4 -339.1,-289 -574.3,-289 H 8596.43 c -235.3,0 -444,113.6 -574.31,289 h 5304.98" /><g
         transform="scale(1.01919)"
         id="g198"><path
           id="path200"
           style="fill:#1f4168;fill-opacity:1;fill-rule:nonzero;stroke:none"
           d="M 12510.2,16300 H 8432.17 c -484.75,0 -879.12,-394.4 -879.12,-879.1 V 5232.78 c 0,-484.7 394.37,-879.13 879.12,-879.13 h 4078.03 c 484.8,0 879.1,394.43 879.1,879.13 V 15420.9 c 0,484.7 -394.3,879.1 -879.1,879.1 z m 0,-177.2 c 387.7,0 701.9,-314.3 701.9,-701.9 V 5232.78 c 0,-387.57 -314.2,-701.83 -701.9,-701.83 H 8432.17 c -387.63,0 -701.88,314.26 -701.88,701.83 V 15420.9 c 0,387.6 314.25,701.9 701.88,701.9 h 4078.03" /></g><g
         transform="scale(1.00811)"
         id="g202"><path
           id="path204"
           style="fill:#1b1a2e;fill-opacity:1;fill-rule:nonzero;stroke:none"
           d="M 12647.7,16300 H 8524.87 c -391.9,0 -709.6,-317.7 -709.6,-709.6 V 5290.3 c 0,-391.82 317.7,-709.54 709.6,-709.54 h 4122.83 c 392,0 709.7,317.72 709.7,709.54 v 10300.1 c 0,391.9 -317.7,709.6 -709.7,709.6 m 0,-44.8 c 366.6,0 664.9,-298.2 664.9,-664.8 V 5290.3 c 0,-366.53 -298.3,-664.81 -664.9,-664.81 H 8524.87 c -366.57,0 -664.8,298.28 -664.8,664.81 v 10300.1 c 0,366.6 298.23,664.8 664.8,664.8 h 4122.83" /></g><path
         id="path206"
         style="fill:#1f4168;fill-opacity:1;fill-rule:nonzero;stroke:none"
         d="m 12570.9,16166.7 v -179.4 h 366.2 v 179.4 h -366.2" /><path
         id="path208"
         style="fill:#1f4168;fill-opacity:1;fill-rule:nonzero;stroke:none"
         d="m 12501,16131.7 v -109.3 h 55.4 v 109.3 h -55.4" /><path
         id="path210"
         style="fill:#1f4168;fill-opacity:1;fill-rule:nonzero;stroke:none"
         d="m 8726.47,15987.3 h 55.19 v 89.7 h -55.19 v -89.7" /><path
         id="path212"
         style="fill:#1f4168;fill-opacity:1;fill-rule:nonzero;stroke:none"
         d="m 8624.25,15987.3 h 55.19 v 119.6 h -55.19 v -119.6" /><path
         id="path214"
         style="fill:#1f4168;fill-opacity:1;fill-rule:nonzero;stroke:none"
         d="m 8522.03,15987.3 h 55.19 v 149.5 h -55.19 v -149.5" /><path
         id="path216"
         style="fill:#1f4168;fill-opacity:1;fill-rule:nonzero;stroke:none"
         d="M 8419.81,15987.3 H 8475 v 179.4 h -55.19 v -179.4" /><path
         id="path218"
         style="fill:#f0f2f5;fill-opacity:1;fill-rule:nonzero;stroke:none"
         d="M 11697.1,15985.7 H 9692.29 c -49.99,0 -90.51,40.5 -90.51,90.5 0,50 40.52,90.5 90.51,90.5 h 2004.81 c 49.9,0 90.4,-40.5 90.4,-90.5 0,-50 -40.5,-90.5 -90.4,-90.5" /><path
         id="path220"
         style="fill:#1f4168;fill-opacity:1;fill-rule:nonzero;stroke:none"
         d="M 11556.2,4891.9 H 9854.13 c -8.29,0 -15,6.7 -15,15 0,8.3 6.71,15 15,15 h 1702.07 c 8.3,0 15,-6.7 15,-15 0,-8.3 -6.7,-15 -15,-15" /><path
         id="path222"
         style="fill:#f0f2f5;fill-opacity:1;fill-rule:nonzero;stroke:none"
         d="M 12874.8,15103.5 H 8469.5 c -70.4,0 -127.46,57.1 -127.39,127.5 l 0.23,241 c 0.06,70.3 57.08,127.2 127.39,127.2 h 4404.87 c 70.3,0 127.3,-56.9 127.4,-127.2 l 0.2,-241 c 0.1,-70.4 -57,-127.5 -127.4,-127.5" /><path
         id="path224"
         style="fill:#d2d9e1;fill-opacity:1;fill-rule:nonzero;stroke:none"
         d="m 12726.7,15459.9 c 0,-13.7 -11.1,-24.8 -24.8,-24.8 -13.7,0 -24.8,11.1 -24.8,24.8 0,13.7 11.1,24.8 24.8,24.8 13.7,0 24.8,-11.1 24.8,-24.8" /><path
         id="path226"
         style="fill:#d2d9e1;fill-opacity:1;fill-rule:nonzero;stroke:none"
         d="m 12726.7,15351.4 c 0,-13.7 -11.1,-24.8 -24.8,-24.8 -13.7,0 -24.8,11.1 -24.8,24.8 0,13.6 11.1,24.7 24.8,24.7 13.7,0 24.8,-11.1 24.8,-24.7" /><path
         id="path228"
         style="fill:#d2d9e1;fill-opacity:1;fill-rule:nonzero;stroke:none"
         d="m 12726.7,15242.8 c 0,-13.7 -11.1,-24.8 -24.8,-24.8 -13.7,0 -24.8,11.1 -24.8,24.8 0,13.7 11.1,24.8 24.8,24.8 13.7,0 24.8,-11.1 24.8,-24.8" /><path
         id="path230"
         style="fill:#d2d9e1;fill-opacity:1;fill-rule:nonzero;stroke:none"
         d="m 8743.89,15351.4 c 0,-46.8 -37.9,-84.7 -84.65,-84.7 -46.75,0 -84.65,37.9 -84.65,84.7 0,46.7 37.9,84.6 84.65,84.6 46.75,0 84.65,-37.9 84.65,-84.6" /><path
         id="path232"
         style="fill:#f0f2f5;fill-opacity:1;fill-rule:nonzero;stroke:none"
         d="M 15151.6,13546.2 V 7675 c 0,-109.7 -88.9,-198.8 -198.7,-198.8 H 9373.48 c -109.76,0 -198.66,89.1 -198.66,198.8 v 5871.2 c 0,109.7 88.9,198.6 198.66,198.6 h 5579.42 c 109.8,0 198.7,-88.9 198.7,-198.6" /><path
         id="path234"
         style="fill:#ffffff;fill-opacity:1;fill-rule:nonzero;stroke:none"
         d="M 15332.8,13718.2 V 7847.1 c 0,-109.8 -88.9,-198.8 -198.7,-198.8 H 9554.67 c -109.76,0 -198.65,89 -198.65,198.8 v 5871.1 c 0,109.7 88.89,198.7 198.65,198.7 h 5579.43 c 109.8,0 198.7,-89 198.7,-198.7" /><path
         id="path236"
         style="fill:#e1e6eb;fill-opacity:1;fill-rule:nonzero;stroke:none"
         d="m 15332.8,13718.2 v -569 H 9356.02 v 569 c 0,109.7 88.89,198.7 198.65,198.7 h 5579.43 c 109.8,0 198.7,-89 198.7,-198.7" /><path
         id="path238"
         style="fill:#1f4168;fill-opacity:1;fill-rule:nonzero;stroke:none"
         d="m 9554.67,13911.9 c -106.81,0 -193.71,-86.9 -193.71,-193.7 V 7847 c 0,-106.8 86.9,-193.7 193.71,-193.7 h 5579.53 c 106.8,0 193.7,86.9 193.7,193.7 v 5871.2 c 0,106.8 -86.9,193.7 -193.7,193.7 z M 15134.2,7643.3 H 9554.67 c -112.32,0 -203.71,91.4 -203.71,203.7 v 5871.2 c 0,112.3 91.39,203.7 203.71,203.7 h 5579.53 c 112.3,0 203.7,-91.4 203.7,-203.7 V 7847 c 0,-112.3 -91.4,-203.7 -203.7,-203.7" /><path
         id="path240"
         style="fill:#1f4168;fill-opacity:1;fill-rule:nonzero;stroke:none"
         d="m 15332.8,13167.6 v -18.4 H 9356.02 v 569 c 0,109.7 88.89,198.7 198.65,198.7 h 4482.93 c 54.2,0 98.2,-44 98.2,-98.1 v -573.7 c 0,-42.7 34.6,-77.5 77.5,-77.5 h 1119.5" /><path
         id="path242"
         style="fill:#1f4168;fill-opacity:1;fill-rule:nonzero;stroke:none"
         d="m 14930.3,13669.6 -54.3,54.3 c -13.6,13.6 -35.6,13.6 -49.2,0 l -87.4,-87.4 -87.4,87.4 c -13.6,13.6 -35.6,13.6 -49.2,0 l -54.3,-54.3 c -13.5,-13.6 -13.5,-35.6 0,-49.2 l 87.4,-87.4 -87.4,-87.4 c -13.5,-13.5 -13.5,-35.5 0,-49.1 l 54.3,-54.3 c 13.6,-13.6 35.6,-13.6 49.2,0 l 87.4,87.4 87.4,-87.4 c 13.6,-13.6 35.6,-13.6 49.2,0 l 54.3,54.3 c 13.6,13.6 13.6,35.6 0,49.1 l -87.4,87.4 87.4,87.4 c 13.6,13.6 13.6,35.6 0,49.2" /><path
         id="path244"
         style="fill:#ffffff;fill-opacity:1;fill-rule:nonzero;stroke:none"
         d="M 11463.4,13429.8 H 9678.62 c -34.05,0 -61.67,27.6 -61.67,61.7 v 80.2 c 0,34 27.62,61.6 61.67,61.6 h 1784.78 c 34,0 61.6,-27.6 61.6,-61.6 v -80.2 c 0,-34.1 -27.6,-61.7 -61.6,-61.7" /><path
         id="path246"
         style="fill:#f0f2f5;fill-opacity:1;fill-rule:nonzero;stroke:none"
         d="m 13208.3,11574.2 c 0,-227.4 -87.6,-434.5 -231,-589.1 -158.4,-170.7 -384.5,-277.4 -635.6,-277.4 -251.2,0 -477.4,106.8 -635.5,277.5 -143.4,154.6 -231.1,361.6 -231.1,589 0,478.6 388,866.7 866.6,866.7 478.6,0 866.6,-388.1 866.6,-866.7" /><path
         id="path248"
         style="fill:#1f4168;fill-opacity:1;fill-rule:nonzero;stroke:none"
         d="m 12977.3,10985.1 c -158.4,-170.7 -384.5,-277.4 -635.6,-277.4 -251.2,0 -477.4,106.8 -635.5,277.5 29.4,35 66.6,63.9 109.5,84.1 l 239.9,112.4 c 44.6,20.9 81.1,53.7 106.5,93.6 25.3,40 39.6,87 39.6,136.1 l -60.5,60.4 c -41.1,41.1 -64.2,96.8 -64.2,154.9 v 234.3 c 0,29 5.8,57.4 16.7,83.7 10.9,26.3 26.9,50.5 47.5,71.1 41,41.1 96.7,64.1 154.8,64.1 h 91.4 c 29,0 57.5,-5.8 83.8,-16.7 26.3,-10.9 50.5,-26.9 71,-47.4 41.1,-41.1 64.1,-96.7 64.1,-154.8 v -234.3 c 0,-58.1 -23,-113.8 -64.1,-154.9 l -60.5,-60.4 c 0,-98.4 56.9,-187.9 146,-229.7 l 239.9,-112.4 c 43.1,-20.2 80.2,-49.1 109.7,-84.2" /><path
         id="path250"
         style="fill:#f0f2f5;fill-opacity:1;fill-rule:nonzero;stroke:none"
         d="m 14231.6,9498.3 h -3774.4 c -92.8,0 -168.1,75.3 -168.1,168.1 v 535.3 c 0,92.9 75.3,168.1 168.1,168.1 h 3774.4 c 92.9,0 168.1,-75.2 168.1,-168.1 v -535.3 c 0,-92.8 -75.2,-168.1 -168.1,-168.1" /><path
         id="path252"
         style="fill:#f0f2f5;fill-opacity:1;fill-rule:nonzero;stroke:none"
         d="m 14231.6,8356.6 h -3774.4 c -92.8,0 -168.1,75.3 -168.1,168.2 V 9060 c 0,92.9 75.3,168.2 168.1,168.2 h 3774.4 c 92.9,0 168.1,-75.3 168.1,-168.2 v -535.2 c 0,-92.9 -75.2,-168.2 -168.1,-168.2" /><path
         id="path254"
         style="fill:#d2d9e1;fill-opacity:1;fill-rule:nonzero;stroke:none"
         d="m 13051.7,9777.4 h -2318.2 c -86.5,0 -156.6,70.2 -156.6,156.7 0,86.5 70.1,156.6 156.6,156.6 h 2318.2 c 86.5,0 156.6,-70.1 156.6,-156.6 0,-86.5 -70.1,-156.7 -156.6,-156.7" /><path
         id="path256"
         style="fill:#d2d9e1;fill-opacity:1;fill-rule:nonzero;stroke:none"
         d="m 10576.9,8792.8 c 0,-86.4 70,-156.3 156.3,-156.3 86.3,0 156.3,69.9 156.3,156.3 0,86.3 -70,156.2 -156.3,156.2 -86.3,0 -156.3,-69.9 -156.3,-156.2" /><path
         id="path258"
         style="fill:#d2d9e1;fill-opacity:1;fill-rule:nonzero;stroke:none"
         d="m 11117.5,8792.8 c 0,-86.4 70,-156.3 156.3,-156.3 86.3,0 156.3,69.9 156.3,156.3 0,86.3 -70,156.2 -156.3,156.2 -86.3,0 -156.3,-69.9 -156.3,-156.2" /><path
         id="path260"
         style="fill:#d2d9e1;fill-opacity:1;fill-rule:nonzero;stroke:none"
         d="m 11710.2,8792.8 c 0,-86.4 70,-156.3 156.3,-156.3 86.3,0 156.3,69.9 156.3,156.3 0,86.3 -70,156.2 -156.3,156.2 -86.3,0 -156.3,-69.9 -156.3,-156.2" /><path
         id="path262"
         style="fill:#d2d9e1;fill-opacity:1;fill-rule:nonzero;stroke:none"
         d="m 12303,8792.8 c 0,-86.4 69.9,-156.3 156.3,-156.3 86.3,0 156.2,69.9 156.2,156.3 0,86.3 -69.9,156.2 -156.2,156.2 -86.4,0 -156.3,-69.9 -156.3,-156.2" /><path
         id="path264"
         style="fill:#d2d9e1;fill-opacity:1;fill-rule:nonzero;stroke:none"
         d="m 12895.7,8792.8 c 0,-86.4 70,-156.3 156.3,-156.3 86.3,0 156.3,69.9 156.3,156.3 0,86.3 -70,156.2 -156.3,156.2 -86.3,0 -156.3,-69.9 -156.3,-156.2" /><g
         transform="scale(1.05383)"
         id="g266"><path
           id="path268"
           style="fill:#f9a21b;fill-opacity:1;fill-rule:nonzero;stroke:none"
           d="m 15913.7,8345.76 h -2458.3 c -213.3,0 -386.3,172.99 -386.3,386.31 v 2458.33 c 0,213.3 173,386.3 386.3,386.3 h 2458.3 c 213.3,0 386.3,-173 386.3,-386.3 V 8732.07 c 0,-213.32 -173,-386.31 -386.3,-386.31" /></g><path
         id="path270"
         style="fill:#ffffff;fill-opacity:1;fill-rule:nonzero;stroke:none"
         d="m 15602.9,10333 c -40.8,-30.6 -67.3,-76.7 -67.3,-127.8 v -8.7 c 0,-35.8 13.1,-69.9 35.4,-98.2 15.9,-20.4 25.4,-45.7 25.4,-73.8 0,-75.7 -69.7,-135.4 -148.6,-118.4 -42.6,9.5 -78.6,43 -89.5,85.2 -10.7,40.6 -1.3,78.7 20.7,107.4 20.7,26.9 28.6,61.7 28.6,95.8 v 15.7 c 0,50.5 -26.6,95.6 -65.8,126.9 -58.9,47.2 -92.2,124.5 -75.4,208.7 16,79.7 78.8,145.4 157.9,163.5 139.7,32.2 263.8,-72.8 263.8,-206.8 0,-69.7 -33.6,-130.8 -85.2,-169.5 z m 542,748.7 h -301.6 v 307.3 c 0,200.4 -156.9,370.1 -357.3,375.9 -208.2,6 -379.4,-161.5 -379.4,-368.1 v -87.8 c 0,-14.8 12,-26.7 26.7,-26.7 14.8,0 26.7,11.9 26.7,26.7 v 80.3 c 0,176.6 144.5,325.5 321.1,322.2 171.1,-3.2 308.9,-142.8 308.9,-314.7 v -315.1 h -984.9 c -53.7,0 -97.3,-43.5 -97.3,-97.2 V 9644.6 c 0,-53.8 43.6,-97.3 97.4,-97.3 h 1339.7 c 53.7,0 97.2,43.5 97.2,97.2 v 1340 c 0,53.7 -43.5,97.2 -97.2,97.2" /><path
         id="path272"
         style="fill:#f9a21b;fill-opacity:1;fill-rule:nonzero;stroke:none"
         d="m 15688.1,10502.5 c 0,-69.7 -33.6,-130.8 -85.2,-169.5 -40.9,-30.7 -67.3,-76.7 -67.3,-127.8 v -8.6 c 0,-35.9 13.1,-70 35.4,-98.3 15.9,-20.4 25.4,-45.8 25.4,-73.8 0,-75.7 -69.7,-135.4 -148.5,-118.4 -42.7,9.5 -78.6,43 -89.6,85.1 -10.7,40.6 -1.3,78.8 20.7,107.4 20.7,27 28.6,61.8 28.6,95.9 v 15.7 c 0,50.5 -26.5,95.5 -65.8,126.9 -58.9,47.2 -92.2,124.5 -75.4,208.8 16,79.6 78.8,145.3 157.9,163.4 139.6,32.2 263.8,-72.8 263.8,-206.8" /><path
         id="path274"
         style="fill:#f0f2f5;fill-opacity:1;fill-rule:nonzero;stroke:none"
         d="M 14939.1,6111.9 H 9387.31 c -117.38,0 -212.54,95.2 -212.54,212.6 v 572.8 c 0,117.4 95.16,212.5 212.54,212.5 h 5551.79 c 117.3,0 212.5,-95.1 212.5,-212.5 v -572.8 c 0,-117.4 -95.2,-212.6 -212.5,-212.6" /><path
         id="path276"
         style="fill:#ffffff;fill-opacity:1;fill-rule:nonzero;stroke:none"
         d="M 15120.3,6283.9 H 9568.51 c -117.39,0 -212.55,95.2 -212.55,212.6 v 572.8 c 0,117.4 95.16,212.5 212.55,212.5 h 5551.79 c 117.3,0 212.5,-95.1 212.5,-212.5 v -572.8 c 0,-117.4 -95.2,-212.6 -212.5,-212.6" /><path
         id="path278"
         style="fill:#1f4168;fill-opacity:1;fill-rule:nonzero;stroke:none"
         d="m 9568.51,7276.8 c -114.44,0 -207.55,-93.1 -207.55,-207.5 v -572.8 c 0,-114.5 93.11,-207.6 207.55,-207.6 h 5551.79 c 114.4,0 207.5,93.1 207.5,207.6 v 572.8 c 0,114.4 -93.1,207.5 -207.5,207.5 z M 15120.3,6278.9 H 9568.51 c -119.96,0 -217.55,97.6 -217.55,217.6 v 572.8 c 0,120 97.59,217.5 217.55,217.5 h 5551.79 c 119.9,0 217.5,-97.5 217.5,-217.5 v -572.8 c 0,-120 -97.6,-217.6 -217.5,-217.6" /><path
         id="path280"
         style="fill:#1f4168;fill-opacity:1;fill-rule:nonzero;stroke:none"
         d="m 10114.4,6928.5 c -80.3,0 -145.6,-65.3 -145.6,-145.6 0,-38.9 15.16,-75.4 42.7,-102.9 27.3,-27.5 63.8,-42.7 102.9,-42.7 h 4460 c 80.2,0 145.6,65.3 145.6,145.6 0,39 -15.2,75.6 -42.7,102.9 -27.3,27.5 -63.9,42.7 -102.9,42.7 z m 4460,-301.2 h -4460 c -41.7,0 -80.8,16.2 -110,45.6 -29.41,29.4 -45.6,68.5 -45.6,110 0,85.8 69.8,155.6 155.6,155.6 h 4460 c 41.7,0 80.8,-16.2 110,-45.6 29.4,-29.2 45.6,-68.3 45.6,-110 0,-85.8 -69.8,-155.6 -155.6,-155.6" /><path
         id="path282"
         style="fill:#1f4168;fill-opacity:1;fill-rule:nonzero;stroke:none"
         d="m 9963.8,6782.9 c 0,-41.6 16.8,-79.1 44.1,-106.5 27.2,-27.3 64.9,-44.1 106.5,-44.1 h 2838.7 v 301.2 h -2838.7 c -83.3,0 -150.6,-67.4 -150.6,-150.6" /><path
         id="path284"
         style="fill:#f0f2f5;fill-opacity:1;fill-rule:nonzero;stroke:none"
         d="m 9506.59,14627.4 c -80.27,0 -145.57,-65.3 -145.57,-145.6 0,-38.9 15.15,-75.4 42.65,-102.9 27.33,-27.5 63.87,-42.7 102.92,-42.7 h 3345.01 c 80.3,0 145.6,65.3 145.6,145.6 0,39 -15.1,75.6 -42.6,102.9 -27.4,27.5 -63.9,42.7 -103,42.7 z m 3345.01,-301.2 H 9506.59 c -41.73,0 -80.79,16.2 -110,45.6 -29.38,29.4 -45.57,68.5 -45.57,110 0,85.8 69.79,155.6 155.57,155.6 h 3345.01 c 41.7,0 80.8,-16.2 110,-45.6 29.4,-29.2 45.6,-68.3 45.6,-110 0,-85.8 -69.8,-155.6 -155.6,-155.6" /><path
         id="path286"
         style="fill:#f0f2f5;fill-opacity:1;fill-rule:nonzero;stroke:none"
         d="m 9356.02,14481.8 c 0,-41.6 16.79,-79.1 44.12,-106.4 27.15,-27.4 64.84,-44.2 106.45,-44.2 h 1723.71 v 301.2 H 9506.59 c -83.23,0 -150.57,-67.4 -150.57,-150.6" /><path
         id="path288"
         style="fill:#f9a21b;fill-opacity:1;fill-rule:nonzero;stroke:none"
         d="m 7898.71,3619 v -263.4 c -19.21,-45.7 -29.11,-94.7 -29.11,-144.2 V 3034 h 866.13 v 91.5 c 0,91.8 -34.92,180.2 -97.68,247.1 L 8529.99,3488 v 138.1 l -631.28,-7.1" /><path
         id="path290"
         style="fill:#f0f2f5;fill-opacity:1;fill-rule:nonzero;stroke:none"
         d="m 8660.34,2907.3 h -736.8 c -29.79,0 -53.94,24.1 -53.94,53.9 v 72.8 h 866.13 v -51.4 c 0,-41.6 -33.75,-75.3 -75.39,-75.3" /><path
         id="path292"
         style="fill:#f9a21b;fill-opacity:1;fill-rule:nonzero;stroke:none"
         d="m 6511.52,3034 h -978.03 v 88.2 c 0,149 120.79,269.8 269.8,269.8 l 60.61,242.2 647.62,-30 V 3034" /><path
         id="path294"
         style="fill:#f0f2f5;fill-opacity:1;fill-rule:nonzero;stroke:none"
         d="m 6473.7,2907.3 h -869.16 c -39.24,0 -71.05,31.8 -71.05,71 v 55.7 h 978.03 v -88.9 c 0,-20.9 -16.93,-37.8 -37.82,-37.8" /><path
         id="path296"
         style="fill:#1b1a2e;fill-opacity:1;fill-rule:nonzero;stroke:none"
         d="m 5810.14,3768.2 38.14,-196.4 c 96.27,28.4 187.56,-19.5 283.59,-67.4 114.33,-57 235.4,-114 379.65,-42.1 l 95.9,201.8 c 19.2,40.4 31.64,83.7 36.79,128.1 l 575.81,4669.3 64.93,-107.4 c 25.25,-41.7 41.52,-88.2 47.78,-136.6 C 7456.25,7262 7695.2,5169.7 7695.2,5169.7 l 203.51,-1702.2 c 90.91,-33.2 188.44,2.2 283.93,37.7 125.93,46.8 248.31,93.6 347.35,-17.2 l 96.42,417 c 14.66,63.4 18.64,128.8 11.78,193.5 l -36.48,343.9 -199.11,5586.1 -765.53,19.6 -124.26,3.3 -300.11,7.7 -205.52,5.3 -694.9,17.8 -50.79,-595.1 -374.02,-5141.3 -72.74,-315.3 c -19.87,-86.1 -21.44,-175.5 -4.59,-262.3" /><path
         id="path298"
         style="fill:#f9a21b;fill-opacity:1;fill-rule:nonzero;stroke:none"
         d="m 5971.03,10965.4 181.62,423.7 52.19,-598.4 -233.81,174.7 m 2342.33,-23.4 c 463.61,267.2 519.89,1142.3 519.41,1558.1 -0.12,134.3 -79.45,255.8 -202.23,310.2 l -664.4,272.9 c 0,0 -79.11,108.5 -108.62,142 -38.96,44.3 -100.68,61.3 -159.17,53.5 l -786.06,-104.6 c -54.58,-7.3 -102.91,-39 -131.31,-86.1 l -15.2,-25.3 -668.57,-240.1 c -128.29,-46 -228.85,-147.7 -273.7,-276.4 l -500.15,-1437.9 c -63.44,-182.6 -7.44,-385.4 140.81,-509.6 l 722.88,-605 -214.63,-1080.3 155.6,-21 417.89,-56 c 183.61,-24.7 356.9,79.1 424.76,245.8 7.99,19.5 14.56,39.9 19.44,61 l 74.44,320 127.13,546.7 173.75,-531.6 c 0,0 109.96,-306.8 149.43,-375.7 107.35,-187.4 361.28,-262.3 582.46,-194.6 l 236.05,72.4 353.98,108.6 -375.97,1596.8 1.98,256.2" /><path
         id="path300"
         style="fill:#1f4168;fill-opacity:1;fill-rule:nonzero;stroke:none"
         d="M 7833.4,13083.2 7585.2,12642 c -209.89,-118.8 -402.22,-478.4 -402.22,-478.4 l 133.77,-207.5 c -92.13,-328.9 -175.32,-705.3 -174.95,-714.8 0.09,-2.5 -26.48,79.3 -66,201.9 -72.46,225.2 -188.43,587.9 -262.63,820.2 -46.1,144.4 -54.29,298.2 -23.83,446.7 l 73.06,356.6 c 2.37,41.7 33.72,76.1 75.06,82.1 l 742.19,97.9 c 57.02,7.6 111.17,-27 128.3,-81.9 l 25.45,-81.6" /><path
         id="path302"
         style="fill:#f9a21b;fill-opacity:1;fill-rule:nonzero;stroke:none"
         d="m 7345.38,12057 c 0,0 -203.95,-806.2 -203.58,-815.7 0.09,-2.5 -94.4,290.2 -94.4,290.2 l 139.81,1106.5 -112.41,176.5 138.75,123.6 125.67,-74.7 -71.85,-210.9 78.01,-595.5" /><path
         id="path304"
         style="fill:#1f4168;fill-opacity:1;fill-rule:nonzero;stroke:none"
         d="m 7365.43,9478.3 -300.88,-15.1 127.13,546.7 173.75,-531.6" /><path
         id="path306"
         style="fill:#ffc89f;fill-opacity:1;fill-rule:nonzero;stroke:none"
         d="m 6923.25,13855.4 v -765.7 l 290.3,-151.6 414.22,151.6 v 765.7 h -704.52" /><path
         id="path308"
         style="fill:#ffc89f;fill-opacity:1;fill-rule:nonzero;stroke:none"
         d="m 7165.78,13166.1 v 0 c 259.13,0 469.2,210.1 469.2,469.2 v 573.2 c 0,259.1 -210.07,469.2 -469.2,469.2 -259.14,0 -469.21,-210.1 -469.21,-469.2 v -573.2 c 0,-259.1 210.07,-469.2 469.21,-469.2" /><path
         id="path310"
         style="fill:#ff9a6c;fill-opacity:1;fill-rule:nonzero;stroke:none"
         d="m 6923.25,13233.3 v -94.9 c 48.82,-0.4 141.69,10.8 224.52,55 -87.98,-18.7 -160.56,2.7 -224.52,39.9" /><path
         id="path312"
         style="fill:#1b1b2f;fill-opacity:1;fill-rule:nonzero;stroke:none"
         d="m 6854.18,13905.6 c 0,-23.3 18.92,-42.2 42.24,-42.2 23.33,0 42.24,18.9 42.24,42.2 0,23.4 -18.91,42.3 -42.24,42.3 -23.32,0 -42.24,-18.9 -42.24,-42.3" /><path
         id="path314"
         style="fill:#1b1b2f;fill-opacity:1;fill-rule:nonzero;stroke:none"
         d="m 6792.51,13946.4 c 11.27,11 25.11,19.5 39.94,25.3 14.83,5.8 30.88,9.1 46.94,8.6 2.01,0.1 4.01,0 6,-0.2 l 5.98,-0.7 5.97,-0.6 c 1.99,-0.2 3.92,-0.8 5.87,-1.2 3.89,-1 7.8,-1.8 11.65,-2.9 3.75,-1.3 7.48,-2.8 11.19,-4.2 l 5.57,-2.2 5.27,-2.7 10.51,-5.6 c 6.67,-4.3 13.04,-9 19.39,-13.6 -6.99,3.7 -13.57,8 -20.55,11.5 l -10.66,4.8 -5.31,2.4 -5.56,1.8 c -3.7,1.2 -7.39,2.4 -11.05,3.7 -3.77,0.8 -7.58,1.6 -11.36,2.4 -1.9,0.3 -3.76,0.9 -5.68,1.1 l -5.77,0.5 c -3.84,0.3 -7.67,1.1 -11.53,0.8 -15.45,0.5 -30.86,-2.4 -45.57,-7.3 -3.71,-1.1 -7.24,-2.7 -10.89,-4.1 -3.53,-1.6 -7.06,-3.3 -10.51,-5.1 -6.96,-3.5 -13.57,-7.8 -19.84,-12.5" /><path
         id="path316"
         style="fill:#1b1b2f;fill-opacity:1;fill-rule:nonzero;stroke:none"
         d="m 7297.45,13905.6 c 0,-23.3 18.9,-42.2 42.23,-42.2 23.33,0 42.24,18.9 42.24,42.2 0,23.4 -18.91,42.3 -42.24,42.3 -23.33,0 -42.23,-18.9 -42.23,-42.3" /><path
         id="path318"
         style="fill:#1b1b2f;fill-opacity:1;fill-rule:nonzero;stroke:none"
         d="m 7235.77,13946.4 c 11.27,11 25.11,19.5 39.94,25.3 14.83,5.8 30.89,9.1 46.94,8.6 2.01,0.1 4.01,0 6,-0.2 l 5.98,-0.7 5.98,-0.6 c 1.97,-0.2 3.91,-0.8 5.86,-1.2 3.89,-1 7.8,-1.8 11.65,-2.9 3.76,-1.3 7.49,-2.8 11.2,-4.2 l 5.56,-2.2 5.27,-2.7 10.51,-5.6 c 6.67,-4.3 13.05,-9 19.39,-13.6 -6.99,3.7 -13.57,8 -20.56,11.5 l -10.65,4.8 -5.31,2.4 -5.56,1.8 c -3.7,1.2 -7.39,2.4 -11.05,3.7 -3.77,0.8 -7.58,1.6 -11.36,2.4 -1.9,0.3 -3.76,0.9 -5.68,1.1 l -5.76,0.5 c -3.86,0.3 -7.68,1.1 -11.54,0.8 -15.45,0.5 -30.86,-2.4 -45.56,-7.3 -3.71,-1.1 -7.25,-2.7 -10.9,-4.1 -3.53,-1.6 -7.06,-3.3 -10.51,-5.1 -6.96,-3.5 -13.57,-7.8 -19.84,-12.5" /><path
         id="path320"
         style="fill:#1b1b2f;fill-opacity:1;fill-rule:nonzero;stroke:none"
         d="m 7050.95,13844.4 c -1.53,-18.2 -3.61,-36.4 -5.76,-54.5 -2.1,-18.2 -4.59,-36.3 -7.07,-54.4 -1.35,-9.1 -2.83,-17.8 -2.07,-26.7 0.44,-8.9 2.53,-17.6 5.98,-25.8 3.52,-8.1 8.85,-15.6 16.3,-20.4 7.62,-5 15.41,-9.8 22.99,-14.9 -8.16,4.1 -16.16,8.5 -24.24,12.8 -8.27,4.7 -14.34,12.5 -18.5,20.9 -4.2,8.4 -6.43,17.7 -7.2,27.1 -0.95,9.3 0.6,18.8 1.84,27.7 2.61,18.1 5.22,36.2 8.22,54.2 2.94,18 5.96,36.1 9.51,54" /><path
         id="path322"
         style="fill:#e43f5a;fill-opacity:1;fill-rule:nonzero;stroke:none"
         d="m 7204.92,13592.5 c -13.42,-4.2 -26.75,-7.5 -40.11,-10.6 -13.35,-3 -26.72,-5.7 -40.11,-8.2 -13.4,-2.6 -26.85,-4.8 -40.38,-6.8 -13.58,-1.9 -27.17,-3.9 -41.25,-4.5 12.41,6.6 25.41,11.6 38.61,15.8 13.22,4.2 26.69,7.5 40.29,10.1 13.6,2.5 27.36,4.3 41.2,5.1 13.84,0.8 27.78,1 41.75,-0.9" /><path
         id="path324"
         style="fill:#1b1b2f;fill-opacity:1;fill-rule:nonzero;stroke:none"
         d="m 6792.51,14138.8 c 2.39,9.3 7.41,17.1 13.19,24.1 2.96,3.4 6.2,6.6 9.64,9.6 1.74,1.5 3.56,2.9 5.4,4.2 1.86,1.3 3.65,2.9 5.69,3.9 15.57,9.6 34.45,14.9 53.28,14.4 4.72,0.3 9.34,-0.7 13.99,-1.2 l 6.92,-1.1 c 2.28,-0.5 4.48,-1.3 6.69,-1.9 4.42,-1.4 8.8,-2.9 13.02,-4.7 4.09,-2.1 8.04,-4.4 11.91,-6.7 1.95,-1.1 3.83,-2.4 5.68,-3.7 1.75,-1.4 3.5,-2.8 5.15,-4.4 3.37,-2.9 6.57,-6.1 9.61,-9.3 2.99,-3.3 5.45,-7.2 7.86,-11 2.4,-3.8 4.5,-7.9 6.25,-12.2 -9.8,-0.2 -17.91,1.1 -25.84,1.9 -4.01,0.3 -7.87,0.6 -11.56,1.1 -1.87,0.2 -3.65,0.6 -5.43,0.9 -1.84,0.1 -3.68,0.1 -5.43,0.3 -3.55,0.3 -7.01,0.6 -10.34,1.1 -3.4,0.2 -6.74,0.2 -9.99,0.6 -1.64,0.1 -3.23,0.4 -4.86,0.4 -1.62,0 -3.22,0.1 -4.82,0.1 l -4.77,0.2 -2.38,0.3 -2.37,-0.1 c -12.68,0.4 -25.26,-0.4 -39.22,-1.4 -14.09,-1.1 -28.75,-3.1 -47.27,-5.4" /><path
         id="path326"
         style="fill:#1b1b2f;fill-opacity:1;fill-rule:nonzero;stroke:none"
         d="m 7235.77,14138.8 c 2.39,9.3 7.41,17.1 13.19,24.1 2.96,3.4 6.2,6.6 9.63,9.6 1.74,1.5 3.57,2.9 5.41,4.2 1.86,1.3 3.66,2.9 5.68,3.9 15.58,9.6 34.46,14.9 53.29,14.4 4.72,0.3 9.34,-0.7 13.99,-1.2 l 6.92,-1.1 c 2.28,-0.5 4.48,-1.3 6.7,-1.9 4.41,-1.4 8.79,-2.9 13.01,-4.7 4.09,-2.1 8.05,-4.4 11.91,-6.7 1.96,-1.1 3.84,-2.4 5.69,-3.7 1.74,-1.4 3.49,-2.8 5.14,-4.4 3.37,-2.9 6.57,-6.1 9.61,-9.3 2.99,-3.3 5.45,-7.2 7.86,-11 2.4,-3.8 4.5,-7.9 6.25,-12.2 -9.8,-0.2 -17.91,1.1 -25.84,1.9 -4.01,0.3 -7.87,0.6 -11.55,1.1 -1.88,0.2 -3.66,0.6 -5.44,0.9 -1.84,0.1 -3.68,0.1 -5.43,0.3 -3.55,0.3 -7.01,0.6 -10.34,1.1 -3.41,0.2 -6.74,0.2 -9.99,0.6 -1.64,0.1 -3.24,0.4 -4.85,0.4 -1.63,0 -3.23,0.1 -4.83,0.1 l -4.77,0.2 -2.38,0.3 -2.37,-0.1 c -12.68,0.4 -25.27,-0.4 -39.22,-1.4 -14.09,-1.1 -28.75,-3.1 -47.27,-5.4" /><path
         id="path328"
         style="fill:#1b1a2e;fill-opacity:1;fill-rule:nonzero;stroke:none"
         d="m 7533.78,14199.2 -2.47,130.7 c -365.53,174 -700.99,96.9 -700.99,96.9 0,0 -70.45,-100.6 -81.51,-266.5 0,0 68.53,14.9 71.61,75.3 0,0 32.69,-10.5 25.29,-56.7 0,0 12.33,19.7 3.08,66.5 l 20.19,-12.3 c 16.88,-10.2 27.42,-28.5 27.44,-48.3 0.18,-125.9 -187.32,-158.2 -267.4,-113 -182.9,6.6 -258.07,136.9 -173.81,279.5 -101.14,189.5 138.74,259.1 138.74,259.1 -141.62,177.3 -11.35,406.4 -11.35,406.4 -6.88,-72 1.91,-135.8 1.91,-135.8 -22.04,178.8 154.43,300.9 154.43,300.9 28.21,-515 729.03,-284.4 729.03,-284.4 319.53,-393.6 555.56,-356.3 555.56,-356.3 -29.43,-32.4 -78.96,-42.2 -78.96,-42.2 l 34.56,-8.5 c 191.87,-386.1 15.24,-636.2 15.24,-636.2 0,48 -10.29,123.4 -10.29,123.4 0.1,-3.3 0.17,-6.6 0.2,-9.9 1.06,-120.5 -64.91,-231.1 -168.67,-292.3 -199.55,-117.7 -187.84,-278.7 -187.84,-278.7 l -4.38,624.3 -47.41,60.1 c -26.57,33.7 -41.39,75.1 -42.2,118" /><path
         id="path330"
         style="fill:#ffc89f;fill-opacity:1;fill-rule:nonzero;stroke:none"
         d="m 7680.79,13653.9 h -24.4 c -48.21,0 -87.29,39.1 -87.29,87.3 v 155.8 c 0,48.2 39.08,87.3 87.29,87.3 h 24.4 c 48.21,0 87.29,-39.1 87.29,-87.3 v -155.8 c 0,-48.2 -39.08,-87.3 -87.29,-87.3" /><path
         id="path332"
         style="fill:#ff9a6c;fill-opacity:1;fill-rule:nonzero;stroke:none"
         d="m 7641.76,13932.4 c 8.4,1 17.03,0.4 25.48,-1.5 8.4,-2.1 16.5,-5.6 23.88,-10.4 14.76,-9.5 26.4,-24.1 32.25,-40.9 2.8,-8.4 4.66,-17.3 4.61,-26.1 -0.02,-8.7 -0.29,-16.9 -0.7,-25.3 -0.72,-16.8 -1.8,-33.5 -3.86,-50.3 -2.06,16.8 -3.14,33.5 -3.86,50.3 -0.52,8.3 -0.42,16.9 -0.95,25 -0.2,7.9 -1.95,15.7 -4.57,23.1 -2.42,7.5 -6.24,14.5 -10.91,20.8 -4.59,6.5 -10.12,12.3 -16.46,17.2 -6.35,4.8 -13.31,9 -20.89,12 -7.59,3 -15.64,4.9 -24.02,6.1" /><path
         id="path334"
         style="fill:#ff9a6c;fill-opacity:1;fill-rule:nonzero;stroke:none"
         d="m 7674.13,13753.7 c -4.71,2.3 -8.5,5.9 -11.73,9.8 -3.2,4 -5.72,8.5 -7.5,13.3 -1.78,4.8 -2.8,9.9 -2.97,15 -0.12,5.1 0.49,10.2 2.56,15 2.08,-4.8 3.52,-9.3 5.1,-13.7 l 4.59,-12.9 4.9,-12.8 c 1.65,-4.3 3.49,-8.7 5.05,-13.7" /><path
         id="path336"
         style="fill:#1f4168;fill-opacity:1;fill-rule:nonzero;stroke:none"
         d="m 6748.82,14160.3 c -18.26,-4.8 -38.11,-4.4 -56.12,2.3 -8.84,3.6 -17.37,8.3 -24.51,14.8 -7.45,6.1 -13.44,13.7 -18.6,21.8 -9.92,16.5 -15.32,35.7 -15.63,54.9 -0.43,19.2 3.55,38.5 11.12,56.1 7.69,17.6 18.93,33.5 32.3,47.2 13.44,13.5 28.66,25.3 45.36,34.5 33.32,18.5 70.29,29.3 107.58,34.9 -9.18,-2.2 -18.44,-4.1 -27.55,-6.5 -9.01,-2.8 -18.2,-4.9 -26.95,-8.4 l -13.28,-4.8 -12.92,-5.6 c -2.13,-1 -4.33,-1.8 -6.42,-2.9 l -6.22,-3.3 c -4.1,-2.2 -8.4,-4.1 -12.33,-6.7 -16.13,-9.5 -31.08,-21 -44.04,-34.4 -12.93,-13.4 -23.69,-28.9 -30.99,-46 -7.45,-16.9 -11.43,-35.5 -11.17,-54 0.09,-18.6 5.37,-36.9 14.39,-53 4.77,-7.9 10.37,-15.5 17.41,-21.5 6.73,-6.4 14.87,-11.2 23.35,-14.9 17.22,-7.2 36.72,-8.2 55.22,-4.5" /><path
         id="path338"
         style="fill:#1f4168;fill-opacity:1;fill-rule:nonzero;stroke:none"
         d="m 6627.53,14196.2 c 4.27,-11.9 10.51,-22.9 18.18,-32.8 7.55,-10 16.38,-19 26.07,-26.8 19.33,-15.7 41.89,-27.9 66.16,-33 12.06,-2.7 24.56,-3.5 36.72,-1.7 12.16,1.8 23.79,6.5 33.74,13.7 9.97,7.3 17.95,17.2 23.85,28.2 6.08,10.9 10.09,22.9 13.46,35.1 -2.27,-12.5 -5.84,-24.7 -11.32,-36.3 -5.59,-11.4 -13.47,-22 -23.67,-30 -10.14,-8.1 -22.61,-13.1 -35.36,-15.2 -12.79,-2 -25.9,-1.3 -38.47,1.4 -25.1,5.7 -48.27,18.2 -67.55,34.9 -19.12,16.7 -35.16,37.9 -41.81,62.5" /><path
         id="path340"
         style="fill:#1f4168;fill-opacity:1;fill-rule:nonzero;stroke:none"
         d="m 6455.21,14351.3 c 16.68,26.3 38.18,49.3 61.59,69.9 23.51,20.6 49.7,38 77.5,52.3 27.93,14.1 57.59,24.7 88.07,31.5 7.68,1.4 15.28,3.2 23.03,4.2 l 11.56,1.7 11.64,1.2 c 15.52,1.4 31.1,1.7 46.64,1.4 -31.07,-1.1 -61.94,-5 -92.01,-12.2 -29.98,-7.5 -59.27,-18 -86.69,-32.2 -13.79,-6.9 -27.21,-14.6 -40.11,-23.1 -12.89,-8.5 -25.2,-17.9 -37.17,-27.7 -11.92,-9.8 -23.32,-20.3 -34.01,-31.5 -10.78,-11.2 -20.96,-22.9 -30.04,-35.5" /><path
         id="path342"
         style="fill:#1f4168;fill-opacity:1;fill-rule:nonzero;stroke:none"
         d="m 6479.76,14441.7 c 3.41,9.5 9.41,18 16.21,25.5 3.25,3.9 7.35,7 11.05,10.5 4.08,3 8.1,6.2 12.38,8.9 17.25,10.9 36.84,17.7 56.71,21.6 l 7.47,1.6 c 2.5,0.4 5.03,0.6 7.55,0.9 l 15.11,1.6 c 5.04,0.4 10.11,0.4 15.16,0.6 5.06,0 10.11,0.4 15.16,0 10.07,-0.7 20.16,-1.1 30.17,-2.2 9.97,-1.6 19.94,-3 29.84,-4.7 -10.06,0.6 -20.05,1.5 -30.04,2.3 -10,0.6 -20.03,0.5 -30.02,0.8 -9.98,-0.3 -19.97,-0.6 -29.91,-1.2 l -14.83,-1.9 c -2.46,-0.4 -4.95,-0.6 -7.39,-1 l -7.29,-1.6 c -4.83,-1.1 -9.8,-1.7 -14.54,-3.2 l -14.23,-4.4 c -4.62,-1.7 -9.15,-3.7 -13.74,-5.6 -4.53,-2 -8.76,-4.6 -13.2,-6.8 -4.29,-2.5 -8.32,-5.4 -12.44,-8.2 -3.73,-3.2 -7.88,-6.1 -11.24,-9.7 -7.25,-6.8 -13.52,-14.8 -17.94,-23.8" /><path
         id="path344"
         style="fill:#1f4168;fill-opacity:1;fill-rule:nonzero;stroke:none"
         d="m 6593.95,14610.4 c 19.87,5.5 40.6,7.7 61.26,7.8 20.7,0.2 41.4,-2.4 61.6,-7 10.17,-2.1 19.91,-5.8 29.78,-9 l 14.31,-6 c 2.36,-1.1 4.84,-1.9 7.09,-3.2 l 6.8,-3.8 c 4.48,-2.6 9.17,-4.8 13.47,-7.7 l 12.78,-8.8 c 4.34,-2.8 8.17,-6.3 12.06,-9.7 3.91,-3.3 7.77,-6.7 11.59,-10.2 -4.18,3.1 -8.31,6.1 -12.4,9.2 -4.09,3.1 -8.12,6.2 -12.63,8.7 l -13.01,8.1 c -4.36,2.7 -9.09,4.7 -13.6,7 -8.98,4.9 -18.64,8.2 -28.01,12.2 -9.75,3 -19.35,6.4 -29.36,8.4 -19.76,4.9 -40.11,7.4 -60.52,8 l -15.33,0.2 c -5.1,-0.2 -10.22,-0.3 -15.32,-0.7 -10.24,-0.5 -20.42,-1.7 -30.56,-3.5" /><path
         id="path346"
         style="fill:#1f4168;fill-opacity:1;fill-rule:nonzero;stroke:none"
         d="m 6584.51,14881 c 3.36,-22.3 12.84,-43.3 25.81,-61.5 12.88,-18.4 29.9,-33.5 48.83,-45.3 18.98,-11.7 39.85,-20.3 61.45,-26.1 21.62,-5.7 43.83,-9.2 66.2,-10.8 44.76,-3.4 89.85,0.2 134.35,6.4 l 16.71,2.4 16.62,3 16.62,3 c 5.54,1 11.01,2.4 16.52,3.5 10.99,2.5 22.11,4.4 33.01,7.3 l 32.87,8 c -43.2,-13 -87.15,-23.7 -131.78,-30.9 l -16.74,-2.7 c -5.6,-0.8 -11.23,-1.3 -16.85,-1.9 l -16.86,-1.9 -16.93,-1.1 c -22.58,-1.6 -45.28,-1.4 -67.91,-0.1 -22.61,1.8 -45.11,5.5 -67.03,11.5 -21.86,6 -43.21,14.7 -62.28,27.2 -19.06,12.4 -36.12,28.2 -48.78,47.1 -6.3,9.5 -11.64,19.5 -15.73,30.1 -4.06,10.6 -7.11,21.6 -8.1,32.8" /><path
         id="path348"
         style="fill:#1f4168;fill-opacity:1;fill-rule:nonzero;stroke:none"
         d="m 7634.98,14519.5 c 23.52,-12.6 48.59,-22.1 74.21,-29.1 6.46,-1.5 12.83,-3.4 19.34,-4.7 6.5,-1.3 12.99,-2.8 19.52,-4 l 19.71,-2.7 c 6.58,-0.9 13.22,-1.1 19.83,-1.6 26.43,-1.8 53.13,-1.1 79.38,3.1 13.25,1.3 26.14,4.7 39.15,7.5 6.59,1.1 12.85,3.4 19.25,5.3 l 19.2,5.7 -18.79,-7 c -6.31,-2.2 -12.49,-4.9 -19.03,-6.4 -12.97,-3.3 -25.87,-7.1 -39.2,-8.9 -26.41,-5 -53.49,-5.6 -80.28,-4.3 -26.84,1.7 -53.46,6.6 -79.14,14.4 -6.46,1.8 -12.71,4.3 -19.07,6.4 -6.3,2.3 -12.49,4.9 -18.67,7.5 -12.18,5.6 -24.24,11.5 -35.41,18.8" /><path
         id="path350"
         style="fill:#1f4168;fill-opacity:1;fill-rule:nonzero;stroke:none"
         d="m 7535.36,14649.3 c 2.96,-13.9 6.48,-27.7 10.66,-41.2 4.06,-13.6 8.67,-27 13.96,-40.2 10.52,-26.2 23.45,-51.6 40.81,-73.8 17.05,-22.2 39.73,-40.6 66.61,-48.7 27,-8.1 56.24,-4.3 83.06,4.7 l -10,-3.7 c -3.34,-1.3 -6.7,-2.5 -10.19,-3.2 l -10.39,-2.7 -10.63,-1.6 c -14.23,-1.5 -28.87,-1 -42.88,2.8 -28.17,7.7 -51.76,26.9 -69.47,49.4 -17.44,22.9 -30.59,48.7 -40.46,75.5 -9.8,26.8 -17.12,54.5 -21.08,82.7" /><path
         id="path352"
         style="fill:#1f4168;fill-opacity:1;fill-rule:nonzero;stroke:none"
         d="m 7984.28,13967.8 c -0.7,14.2 -1.72,28.5 -3.16,42.7 -1.3,14.2 -2.94,28.3 -4.92,42.4 -3.97,28.2 -8.8,56.3 -15.72,84 -6.52,27.6 -15.05,54.8 -25.88,81.1 -10.84,26.3 -24.48,51.5 -41.87,74.2 9.51,-10.7 17.83,-22.4 25.48,-34.5 7.51,-12.3 13.93,-25.1 19.89,-38.2 11.67,-26.2 20.24,-53.7 27.18,-81.5 6.57,-27.9 11.5,-56.1 14.68,-84.6 3.09,-28.4 4.93,-57 4.32,-85.6" /><path
         id="path354"
         style="fill:#1f4168;fill-opacity:1;fill-rule:nonzero;stroke:none"
         d="m 7283.25,13777.9 v 0 c -91.18,0 -165.1,73.9 -165.1,165.1 v 57.5 h 330.19 v -57.5 c 0,-91.2 -73.92,-165.1 -165.09,-165.1" /><path
         id="path356"
         style="fill:#1f4168;fill-opacity:1;fill-rule:nonzero;stroke:none"
         d="m 6861.32,13777.9 v 0 c -91.17,0 -165.08,73.9 -165.08,165.1 v 57.5 h 330.18 v -57.5 c 0,-91.2 -73.92,-165.1 -165.1,-165.1" /><path
         id="path358"
         style="fill:#1f4168;fill-opacity:1;fill-rule:nonzero;stroke:none"
         d="m 7620.27,13977.3 -681.61,1.2 v 22 l 681.6,1.5 c 6.85,0 12.41,-5.5 12.41,-12.4 0,-6.8 -5.56,-12.3 -12.4,-12.3" /><path
         id="path360"
         style="fill:#1f4168;fill-opacity:1;fill-rule:nonzero;stroke:none"
         d="m 7679.39,13890.4 c -21.77,7.7 -45.62,-3.8 -53.26,-25.6 l -27.31,-77.9 c -7.64,-21.7 3.83,-45.6 25.61,-53.2 l -11.52,-32.9 c -3.82,-10.9 1.92,-22.8 12.81,-26.6 10.89,-3.8 22.81,1.9 26.63,12.8 l 25.35,72.3 11.8,33.6 15.51,44.3 c 7.64,21.8 -3.83,45.6 -25.62,53.2" /><path
         id="path362"
         style="fill:#d67813;fill-opacity:1;fill-rule:nonzero;stroke:none"
         d="m 6353.91,9974.8 c -58.85,0 63.66,306.7 63.66,306.7 l 148.17,-68.7 c 0,0 -101.56,-192.9 -201.13,-235.5 -4.09,-1.7 -7.64,-2.5 -10.7,-2.5" /><path
         id="path364"
         style="fill:#d67813;fill-opacity:1;fill-rule:nonzero;stroke:none"
         d="m 8117.02,10842.5 c -55.61,0 -110.07,28.2 -141.02,79.7 l -78.52,130.6 c 23.65,-34.8 62.17,-64.7 62.17,-64.7 75.49,-58.8 151.45,-75.5 213.53,-75.5 82.29,0 140.18,29.4 140.18,29.4 l -103.9,-70.9 c -28.41,-19.4 -60.61,-28.6 -92.44,-28.6 m -219.54,210.3 c -3.27,4.8 -6.27,9.8 -8.83,14.7 l 8.83,-14.7" /><path
         id="path366"
         style="fill:#d67813;fill-opacity:1;fill-rule:nonzero;stroke:none"
         d="m 6152.65,11389.1 v 0 c 0,0 0,0 0,0 v 0 m 0,0 c -62.71,115.4 -92.78,245.7 -86.99,376.9 l 15.98,363 71.01,-739.9" /><path
         id="path368"
         style="fill:#d67813;fill-opacity:1;fill-rule:nonzero;stroke:none"
         d="m 7191.68,10009.9 -262.54,23.3 c -85.24,7.5 -166.75,38.4 -235.57,89.3 l -112.83,83.3 586,311.1 424.14,-38.9 -361.02,-29.8 20.33,-100.6 332.24,-25.8 -326.59,-40.3 -13.19,-126.4 268.44,7.2 -330.84,-41.9 11.43,-110.5" /><path
         id="path370"
         style="fill:#d67813;fill-opacity:1;fill-rule:nonzero;stroke:none"
         d="m 8199.58,11950.1 -53.41,76.4 238.62,248.7 -185.21,-325.1" /><path
         id="path372"
         style="fill:#142e4f;fill-opacity:1;fill-rule:nonzero;stroke:none"
         d="m 7139.78,12712.4 c -0.09,0.2 -25.27,12.5 -46.35,22.9 -10.93,5.3 -22.83,8 -34.79,8 -7.91,0 -15.84,-1.2 -23.52,-3.6 l -68.54,-21.3 108.22,96.1 64.98,-102.1" /><path
         id="path374"
         style="fill:#d67813;fill-opacity:1;fill-rule:nonzero;stroke:none"
         d="m 5971.03,10965.4 c -205.48,150 -381.8,165.9 -447.45,165.9 -1.9,0 -3.7,0 -5.41,0 l 219.81,11.2 c 3.57,0.2 7.13,0.3 10.69,0.3 74.55,0 143.8,-39.9 181.05,-105.1 l 41.31,-72.3 m -474.84,164.7 c 0,0 7.72,1 21.98,1.2 l -21.98,-1.2" /><path
         id="path376"
         style="fill:#d67813;fill-opacity:1;fill-rule:nonzero;stroke:none"
         d="m 8641.53,11547 -235.77,215.1 65.11,-25.2 c 83.93,-32.5 147.33,-103 170.66,-189.9 v 0" /><path
         id="path378"
         style="fill:#a65b3c;fill-opacity:1;fill-rule:nonzero;stroke:none"
         d="m 8313.36,10942 c -67.79,-30.8 -145.78,-38.7 -218.47,-21.5 -72.62,16.9 -139.72,58.4 -186.3,117 -11.49,14.7 -22.15,30.1 -32.08,45.8 l -30.29,46.9 -60.59,93.7 -121.16,187.5 -241.42,375.6 -241.01,375.8 -0.39,0.6 0.38,0.6 123.8,194.9 -121.9,-196.1 -0.01,1.2 242.41,-374.9 242.01,-375.2 120.54,-187.9 60.28,-93.9 c 20.42,-31.1 39.2,-63.5 61.87,-92.7 45.92,-58.3 112.4,-99.4 184.36,-116.8 72.05,-17.8 149.87,-10.8 217.97,19.4" /><path
         id="path380"
         style="fill:#a65b3c;fill-opacity:1;fill-rule:nonzero;stroke:none"
         d="m 7729.82,12621.6 118.51,-167.1 117.83,-167.6 c 78.38,-111.8 157.49,-223.2 235.28,-335.5 l -0.33,0.4 220.49,-202.1 c 73.61,-67.2 146.77,-135 219.93,-202.7 -74.16,66.6 -148.32,133.3 -222.01,200.4 l -221.46,201.1 -0.18,0.1 -0.16,0.3 c -78.79,111.5 -156.27,224 -234.47,336 l -117.05,168.1 -116.38,168.6" /><path
         id="path382"
         style="fill:#a65b3c;fill-opacity:1;fill-rule:nonzero;stroke:none"
         d="m 8510.53,12495.9 c -25.11,-45.9 -50.45,-91.7 -76.07,-137.4 l -77.23,-136.7 -78.24,-136.2 c -26.2,-45.3 -52.69,-90.4 -79.41,-135.4 25.11,45.9 50.45,91.7 76.07,137.3 l 77.24,136.8 78.24,136.1 c 26.2,45.3 52.69,90.5 79.4,135.5" /><path
         id="path384"
         style="fill:#a65b3c;fill-opacity:1;fill-rule:nonzero;stroke:none"
         d="m 5971.03,10965.4 c -17.17,12.7 -34.95,24.5 -53.19,35.5 -18.07,11.3 -36.61,21.8 -55.37,31.9 -37.61,20 -76.43,37.7 -116.38,52.3 -39.69,15.5 -81.06,26.1 -122.76,34.3 l -31.48,5.3 c -10.55,1.4 -21.18,2 -31.78,3.1 l -15.9,1.6 c -5.32,0.2 -10.65,0.2 -15.98,0.3 l -32,0.4 c 42.59,1.8 85.64,0.9 127.81,-6.9 42.11,-7.4 83.77,-18.2 123.82,-33.4 40.04,-15.1 79.1,-32.8 116.48,-53.6 37.33,-20.9 73.36,-44.2 106.73,-70.8" /><path
         id="path386"
         style="fill:#1b1a2e;fill-opacity:1;fill-rule:nonzero;stroke:none"
         d="m 6919.04,12676.3 c 24.59,24.5 50.46,47.7 76.22,70.9 26.16,22.9 52.2,45.8 79.54,67.3 -24.58,-24.6 -50.45,-47.7 -76.22,-71 -26.16,-22.8 -52.21,-45.8 -79.54,-67.2" /><path
         id="path388"
         style="fill:#1b1a2e;fill-opacity:1;fill-rule:nonzero;stroke:none"
         d="m 6849.95,13006 c 6.66,-27.3 13.06,-54.7 19.15,-82.1 l 17.84,-82.3 16.71,-82.5 c 5.43,-27.6 10.54,-55.2 15.39,-82.8 -6.66,27.2 -13.07,54.6 -19.16,82 l -17.83,82.3 -16.7,82.5 c -5.43,27.6 -10.54,55.2 -15.4,82.9" /><path
         id="path390"
         style="fill:#1f4168;fill-opacity:1;fill-rule:nonzero;stroke:none"
         d="m 7019.95,8766.4 c 17.44,-24.9 34.67,-49.9 51.62,-75.2 l 50.5,-75.9 49.54,-76.5 c 16.39,-25.6 32.51,-51.4 48.4,-77.3 -17.44,24.9 -34.67,50 -51.62,75.2 l -50.49,75.9 -49.53,76.5 c -16.4,25.6 -32.51,51.4 -48.42,77.3" /><path
         id="path392"
         style="fill:#1f4168;fill-opacity:1;fill-rule:nonzero;stroke:none"
         d="m 5934.39,3745.3 26.3,9.7 c 8.82,3 17.44,6.8 26.55,9 18.1,4.7 36.07,10.1 54.64,12.8 36.78,7.3 74.52,8.8 111.94,7.7 37.48,-1.4 74.75,-7.4 110.91,-17.2 18.08,-4.9 35.84,-10.9 53.29,-17.7 17.25,-7.2 34.29,-15 50.33,-24.6 -33.1,17.3 -68.56,29.5 -104.6,38.6 -36.07,8.9 -72.98,14.9 -110.15,15.9 -37.07,1.5 -74.44,0 -111.08,-6.5 -36.89,-5.2 -72.68,-16 -108.13,-27.7" /><path
         id="path394"
         style="fill:#1f4168;fill-opacity:1;fill-rule:nonzero;stroke:none"
         d="m 8063.37,3734.6 27.16,6.9 c 9.09,2.1 18.05,5 27.34,6.2 18.48,2.8 36.92,6.4 55.67,7.1 37.34,3.5 75.03,1.1 112.14,-3.8 37.13,-5.3 73.59,-15.1 108.54,-28.5 17.49,-6.8 34.53,-14.6 51.19,-23.1 16.42,-9 32.55,-18.5 47.53,-29.7 -31.14,20.6 -65.16,36.4 -100.07,49.1 -34.96,12.6 -71.06,22.4 -107.92,27.3 -36.73,5.3 -74.06,7.6 -111.17,4.9 -37.23,-1.4 -73.94,-8.4 -110.41,-16.4" /><path
         id="path396"
         style="fill:#a65b3c;fill-opacity:1;fill-rule:nonzero;stroke:none"
         d="m 6642.64,10672.6 c -36.72,8.9 -73.38,18.1 -109.94,27.7 l -109.61,28.9 -109.3,30.1 c -36.39,10.2 -72.71,20.7 -108.95,31.4 36.73,-8.9 73.38,-18.1 109.95,-27.6 l 109.6,-29 109.3,-30.1 c 36.4,-10.2 72.71,-20.7 108.95,-31.4" /><path
         id="path398"
         style="fill:#a65b3c;fill-opacity:1;fill-rule:nonzero;stroke:none"
         d="m 6152.65,11389.1 -11.89,111.1 -11.11,111.2 -22.19,222.4 -20.52,222.5 -10.24,111.3 -9.45,111.3 11.89,-111.1 11.11,-111.2 22.18,-222.3 20.51,-222.6 10.24,-111.3 9.47,-111.3" /><path
         id="path400"
         style="fill:#a65b3c;fill-opacity:1;fill-rule:nonzero;stroke:none"
         d="m 6756.16,13044.6 c -12.1,-19.9 -24.41,-39.7 -37,-59.3 l -38.11,-58.5 c -3.11,-4.8 -6.84,-9.7 -9.23,-14.4 -2.41,-4.9 -3.69,-10.3 -3.74,-15.8 -0.14,-11 5.16,-21.8 13.65,-28.9 9.15,-6.5 19.31,-12.8 28.9,-19.2 l 28.91,-19.6 c -20.21,11.7 -40.21,23.1 -60.19,35.8 -9.83,7.3 -15.76,19.6 -15.81,31.9 -0.04,6.1 1.32,12.3 3.97,17.9 2.84,5.7 6.25,10.1 9.38,15.1 l 39.08,57.8 c 13.15,19.3 26.56,38.3 40.19,57.2" /><path
         id="path402"
         style="fill:#a65b3c;fill-opacity:1;fill-rule:nonzero;stroke:none"
         d="m 6796.54,12844.5 -112.15,-31.4 -56.07,-15.7 c -4.69,-1.3 -9.43,-2.3 -13.61,-4.5 -4.23,-2.1 -8.04,-5 -11.19,-8.5 -6.39,-7 -9.83,-16.5 -9.61,-25.9 l 6.09,-116.2 c 2.28,-38.8 3.52,-77.6 6.87,-116.2 6.97,-77.2 23.95,-153.4 50.1,-226.3 12.97,-36.6 28.9,-71.9 45.58,-106.9 l 49.23,-105.6 195.38,-422.8 97.67,-211.5 96.97,-211.7 -99.18,210.7 -98.47,211.1 -196.9,422.1 -48.84,105.7 c -16.53,35.1 -32.47,70.7 -45.34,107.5 -26.01,73.3 -42.79,149.9 -49.5,227.4 -3.23,38.8 -4.32,77.5 -6.46,116.3 l -5.63,116.4 c -0.13,10 3.65,20 10.46,27.3 3.37,3.7 7.43,6.7 11.89,8.9 4.5,2.2 9.38,3.2 14,4.5 l 56.24,15.1 112.47,30.2" /><path
         id="path404"
         style="fill:#a65b3c;fill-opacity:1;fill-rule:nonzero;stroke:none"
         d="m 7141.8,11241.3 c 23.28,43.7 47.26,87.1 71.79,130.2 24.49,43.2 49.69,85.9 74.99,128.5 25.59,42.5 51.54,84.8 78.1,126.7 26.54,41.9 53.97,83.2 82,124.1 -26.49,-41.9 -52.78,-83.9 -78.73,-126.2 -25.88,-42.3 -51.84,-84.5 -77.09,-127.1 -25.64,-42.4 -50.77,-85.2 -75.96,-127.9 l -75.1,-128.3" /><path
         id="path406"
         style="fill:#a65b3c;fill-opacity:1;fill-rule:nonzero;stroke:none"
         d="m 7141.8,11241.3 c 13.68,59.7 27.62,119.5 41.87,179.1 l 43.18,178.9 44.29,178.5 c 14.91,59.5 30.13,118.9 45.61,178.3 -13.68,-59.8 -27.62,-119.5 -41.87,-179.2 l -43.18,-178.8 -44.31,-178.6 c -14.9,-59.5 -30.12,-118.9 -45.59,-178.2" /><path
         id="path408"
         style="fill:#a65b3c;fill-opacity:1;fill-rule:nonzero;stroke:none"
         d="m 7191.67,10009.9 -7.45,153.9 -6.67,153.9 -13.31,307.8 -11.64,307.8 -5.79,154 -5.01,154 7.45,-153.9 6.68,-153.9 13.3,-307.8 11.63,-307.9 5.8,-153.9 5.01,-154" /><path
         id="path410"
         style="fill:#a65b3c;fill-opacity:1;fill-rule:nonzero;stroke:none"
         d="m 7852.88,12445.7 c 25.72,40.8 51.66,81.4 77.86,121.8 l 78.98,121 19.82,30 c 5.94,9.8 8.18,21.9 5.99,33.2 -1.06,5.6 -3.13,11.1 -6.12,16 -2.88,4.9 -7.09,9.1 -11.16,13.6 l -24.27,26.8 c -32.33,35.7 -64.42,71.6 -96.32,107.7 33.26,-34.9 66.33,-69.9 99.16,-105.1 l 24.61,-26.5 c 3.97,-4.4 8.49,-8.7 11.76,-14.2 3.3,-5.3 5.61,-11.3 6.81,-17.5 2.48,-12.3 0.11,-25.6 -6.36,-36.4 l -19.75,-30.4 -79.95,-120.3 c -26.76,-40.1 -53.8,-80 -81.06,-119.7" /><path
         id="path412"
         style="fill:#a65b3c;fill-opacity:1;fill-rule:nonzero;stroke:none"
         d="m 7975.64,13063.5 c 8.27,-21.3 16.3,-42.7 24.02,-64.2 l 22.75,-64.6 10.89,-32.5 c 4.19,-10.8 5.17,-23.6 1.37,-34.9 -1.85,-5.6 -4.56,-11 -8.18,-15.6 -3.68,-4.7 -7.89,-8.5 -11.85,-12.6 l -24.44,-24.1 22.66,25.7 c 3.75,4.3 7.92,8.4 11.09,12.8 3.22,4.5 5.53,9.6 7.03,14.9 2.9,10.7 2.24,21.9 -1.99,32.3 l -11.3,32.4 -21.65,65 c -7.09,21.7 -13.86,43.5 -20.4,65.4" /><path
         id="path414"
         style="fill:#a65b3c;fill-opacity:1;fill-rule:nonzero;stroke:none"
         d="m 8362.08,11801.9 c 21.27,2.4 42.76,2.8 64.17,1.9 21.43,-0.7 42.79,-3 63.99,-6.2 21.15,-3.6 42.22,-7.8 62.8,-13.9 20.71,-5.6 40.76,-13.3 60.44,-21.6 -20.35,6.6 -40.69,13 -61.43,17.9 -20.64,5.2 -41.53,9.5 -62.58,12.6 -20.98,3.6 -42.19,5.8 -63.43,7.4 -21.25,1.5 -42.58,2.5 -63.96,1.9" /><path
         id="path416"
         style="fill:#a65b3c;fill-opacity:1;fill-rule:nonzero;stroke:none"
         d="m 7667.91,10110.1 11.2,-57.7 c 3.95,-19.1 6.21,-38.9 15.09,-56.2 8.16,-17.7 21.39,-32.6 36.85,-44.1 15.81,-11.1 34.19,-18.8 53.4,-21 19.22,-2.8 38.48,1.4 57.91,4.1 l 58.13,8.5 116.27,16.9 116.39,16.2 58.19,8.1 c 19.4,2.8 39.08,4.1 56.75,12.2 35.7,14.9 62.41,49.3 68.53,87.6 1.15,4.7 1.09,9.6 1.66,14.4 0.09,4.9 0.05,9.8 -0.25,14.6 -0.95,9.6 -2.76,19.3 -4.43,28.9 l -9.99,57.9 11.19,-57.6 c 1.87,-9.6 3.88,-19.2 5.05,-29 0.42,-4.9 0.56,-9.9 0.57,-14.8 -0.48,-4.9 -0.32,-9.9 -1.39,-14.8 -5.9,-39.2 -33,-74.6 -69.62,-90.3 -18.24,-8.4 -38.38,-9.9 -57.54,-12.9 l -58.13,-8.4 -116.27,-17 -116.39,-16.1 -58.19,-8.1 c -9.73,-1.3 -19.35,-2.8 -29.15,-3.9 -9.87,-1.1 -19.88,-1.2 -29.72,0.2 -19.73,2.4 -38.56,10.4 -54.66,21.9 -15.77,11.9 -29.23,27.3 -37.35,45.4 -8.71,18 -10.55,38 -14.1,57.1 l -10,57.9" /><path
         id="path418"
         style="fill:#a65b3c;fill-opacity:1;fill-rule:nonzero;stroke:none"
         d="m 8303.61,10200.5 c -52.85,-8.4 -105.73,-16.6 -158.65,-24.5 l -158.85,-23.1 -159,-22.1 c -53.02,-7.2 -106.09,-14.1 -159.2,-20.7 52.85,8.5 105.73,16.6 158.66,24.5 l 158.84,23.2 159,22 c 53.03,7.2 106.1,14.1 159.2,20.7" /><path
         id="path420"
         style="fill:#a65b3c;fill-opacity:1;fill-rule:nonzero;stroke:none"
         d="m 6302.99,9890.4 c 33.49,17.3 63.97,39.8 92.51,64.2 28.55,24.4 55.06,51.3 79.02,80.2 48.07,57.9 85.42,124.1 112.86,193.9 13.79,35 24.7,71 33.89,107.4 8.11,36.6 15.46,73.6 19.05,111 4.5,37.4 5.9,75 6.44,112.6 0.14,18.8 -0.51,37.7 -0.73,56.5 l -3.39,56.4 4.61,-56.4 c 0.63,-18.8 1.69,-37.6 1.96,-56.5 -0.19,-37.7 -1.36,-75.4 -5.59,-112.9 -3.32,-37.6 -10.41,-74.8 -18.29,-111.7 -8.98,-36.6 -19.65,-72.9 -33.31,-108.2 -28.14,-70.1 -66.22,-136.4 -114.96,-194.2 -48.71,-57.4 -106.61,-108.4 -174.07,-142.3" /><path
         id="path422"
         style="fill:#a65b3c;fill-opacity:1;fill-rule:nonzero;stroke:none"
         d="m 6187.05,9993.7 c 20.69,-15.7 40.11,-32.8 59.63,-49.8 19.13,-17.4 38.37,-34.7 56.31,-53.5 -20.71,15.6 -40.12,32.8 -59.64,49.8 -19.12,17.4 -38.35,34.7 -56.3,53.5" /><path
         id="path424"
         style="fill:#ffffff;fill-opacity:1;fill-rule:nonzero;stroke:none"
         d="m 7163.54,11950.1 h -114.29 c -12.7,0 -23,10.3 -23,23 0,12.7 10.3,23 23,23 h 114.29 c 12.7,0 22.98,-10.3 22.98,-23 0,-12.7 -10.28,-23 -22.98,-23" /><path
         id="path426"
         style="fill:#ffc89f;fill-opacity:1;fill-rule:nonzero;stroke:none"
         d="m 7401.95,12481.9 -25.82,81.8 c -41.6,50.2 -67.7,111.4 -74.93,176.3 -10.64,95.4 -18.68,250.2 4.42,441.6 l -39.37,134.6 -76.29,167.7 c -8.5,18.7 -0.7,40.8 17.65,49.9 16.88,8.5 37.4,3.3 48.25,-12.1 l 107.02,-152.4 c 3.49,-5 6.23,-10.4 8.11,-16.2 l 41.65,-128.3 c 22.55,29.4 34.77,65.4 34.77,102.4 v 95.9 l -76.58,198.3 c -8.92,23.1 3.13,49 26.54,57.1 19.7,6.7 41.44,-1.3 51.94,-19.3 l 125.08,-214.6 -52.49,246.3 c -5.83,27.4 11.77,54.3 39.19,59.9 26.32,5.4 52.24,-10.8 58.93,-36.8 l 12.91,-50.2 77.78,-102.4 74.22,-156.9 c 10.03,-21.2 14.52,-44.6 13.06,-68.1 l -29.46,-472.1 c -3.3,-52.9 -16.78,-104.6 -39.7,-152.4 l 0.99,-90.3 c 0,0 -126.37,48.8 -327.87,-139.7" /><path
         id="path428"
         style="fill:#ffc89f;fill-opacity:1;fill-rule:nonzero;stroke:none"
         d="m 6417.57,10281.5 429.09,-198.9 c 33.5,-15.7 68.82,-27.1 105.16,-34 l 211.04,-40.1 c 12.94,-2.5 26.1,-3.6 39.26,-3.2 l 231.01,6 c 20.34,0.5 36.41,19.2 32,39 -7.09,32 -50.99,69.5 -229.94,51.4 l -159.46,54.4 243.46,-1.5 268.29,10.7 c 24.17,1 43.52,20.4 44.37,44.6 0.89,25.1 -18.35,46.3 -43.38,47.8 l -280.94,17.3 -180.46,22.7 222.46,18.7 282.19,6.5 c 29.07,0.7 52.28,24.5 52.28,53.6 0,28.6 -22.51,52.1 -51.09,53.4 l -462.9,21 49.62,24.9 170.35,7.8 200.89,-5.6 c 28.86,-0.8 53.49,20.8 56.53,49.5 2.66,25 -11.81,48.8 -35.42,57.6 -51.23,18.9 -162.89,42.6 -392.37,33.3 l -21.43,29.8 c -24.46,34 -59.45,59 -99.55,71.2 l -118.23,35.9 c -45.86,13.9 -95.28,10.1 -138.45,-10.7 l -149.37,-72 h -49.94 c 0,0 -113.05,-118.7 -225.07,-391.1" /><path
         id="path430"
         style="fill:#ff9a6c;fill-opacity:1;fill-rule:nonzero;stroke:none"
         d="m 6915.62,10704.1 34.19,-21.6 c 11.33,-7.3 22.49,-14.7 34.37,-20.9 23.59,-12.6 48.88,-22 75.03,-27.4 26,-6.1 53.03,-6.3 79.9,-8.7 26.85,-2.1 53.69,-4.5 80.5,-7.1 -26.93,0.8 -53.85,1.9 -80.75,3.3 -26.78,1.6 -54,1.8 -80.69,7.6 -26.51,5.9 -52.29,15.4 -75.84,28.9 -23.52,13.7 -44.62,30.4 -66.71,45.9" /><path
         id="path432"
         style="fill:#ff9a6c;fill-opacity:1;fill-rule:nonzero;stroke:none"
         d="m 7561.09,13750.8 c 10.45,2.2 21.73,1.4 31.59,-3.2 9.88,-4.4 18.42,-12 23.73,-21.6 2.76,-4.7 4.55,-10.1 5.8,-15.2 l 4.15,-15.5 8.31,-31 -0.04,0.1 35.59,-103.3 17.65,-51.7 c 5.82,-17.2 11.85,-34.7 15.25,-52.7 3.57,-18 5.43,-36.4 5.54,-54.7 0.17,-18.4 -2.31,-36.6 -3.86,-54.7 l -10.83,-108.7 7.62,109 c 1.23,18.2 3.27,36.3 2.83,54.3 -0.22,18.1 -2.17,36.2 -5.81,53.8 -3.46,17.8 -9.45,34.8 -15.43,52.1 l -17.41,51.8 -34.53,103.6 -0.03,0.1 -0.01,0.1 -7.7,31.2 -3.85,15.5 c -1.21,5.3 -2.7,10.2 -5.18,14.9 -4.76,9.3 -12.74,17 -22.26,21.6 -9.49,4.8 -20.59,6.1 -31.12,4.2" /><path
         id="path434"
         style="fill:#ff9a6c;fill-opacity:1;fill-rule:nonzero;stroke:none"
         d="m 7574.39,13444.6 c -6.65,26.8 -13.06,53.7 -19.14,80.6 l -17.83,80.9 -16.71,81.2 c -3.37,13.7 -1.29,29.1 6.43,41 7.65,11.9 20.29,20.2 33.95,22.5 -13.51,-3.1 -25.27,-12.1 -31.86,-23.8 -6.91,-11.7 -8.41,-25.9 -4.76,-38.9 l 17.83,-80.9 16.7,-81.2 c 5.43,-27.1 10.53,-54.2 15.39,-81.4" /><path
         id="path436"
         style="fill:#ff9a6c;fill-opacity:1;fill-rule:nonzero;stroke:none"
         d="m 7397.37,13678.5 c 11.1,4 23.94,3.4 34.62,-2.1 5.34,-2.7 10.23,-6.4 14.07,-11 3.91,-4.7 6.6,-10 9.74,-15 l 36.27,-60.8 71.83,-122.1 8.87,-15.3 c 1.46,-2.7 2.99,-4.7 4.39,-8.1 1.12,-2.7 2.14,-5.6 3.1,-8.4 3.83,-11.3 6.42,-23.1 7.67,-35 1.35,-11.9 1.03,-24 0.06,-35.8 l -2.53,-35.3 c -3.38,-47.1 -7.1,-94.1 -11.07,-141.2 2.13,47.2 4.52,94.3 7.24,141.5 l 2.04,35.3 c 0.9,11.8 1.12,23.4 -0.26,35 -1.3,11.6 -3.89,23 -7.67,34 -0.95,2.7 -1.97,5.4 -3.06,8.1 -0.8,2.1 -2.8,5 -4.14,7.4 l -8.96,15.3 -70.82,122.7 -35.06,61.5 c -2.98,5.1 -5.52,10.5 -9.05,15 -3.53,4.6 -8.12,8.4 -13.22,11.1 -10.2,5.7 -22.82,6.8 -34.06,3.2" /><path
         id="path438"
         style="fill:#ff9a6c;fill-opacity:1;fill-rule:nonzero;stroke:none"
         d="m 7447.41,13423.1 c -9.34,21.7 -18.45,43.4 -27.25,65.3 l -26.01,65.7 -24.94,66.2 c -4.33,11.5 -3.79,24.7 1.56,35.6 5.36,10.9 15.3,19.2 26.6,22.6 -22.71,-8.2 -33.98,-35.9 -24.57,-56.8 l 26.01,-65.8 24.92,-66.1 c 8.18,-22.1 16.05,-44.4 23.68,-66.7" /><path
         id="path440"
         style="fill:#ff9a6c;fill-opacity:1;fill-rule:nonzero;stroke:none"
         d="m 7412.64,13224.8 c 19.23,28.5 30.98,61.5 32.13,95.4 l 0.72,51.4 c 0.4,17.2 0.88,34.3 1.92,51.5 1.04,-17.2 1.53,-34.3 1.93,-51.5 0.33,-17.2 0.53,-34.2 0.42,-51.6 -1.68,-34.7 -14.47,-69.1 -37.12,-95.2" /><path
         id="path442"
         style="fill:#ff9a6c;fill-opacity:1;fill-rule:nonzero;stroke:none"
         d="m 7207.61,13533.8 c 8.59,4.6 19.01,5.7 28.48,2.9 9.54,-2.5 17.82,-9.4 23.06,-17.6 l 34.01,-47.2 67.38,-94.9 c 5.78,-7.7 10.92,-16.8 13.73,-26.3 l 8.88,-27.7 17.65,-55.5 35.04,-111 -19.87,54.7 c -6.6,18.3 -12.53,36.8 -18.83,55.1 l -18.31,55.3 -9.1,27.6 c -2.83,9.1 -7.43,17.1 -13.28,24.9 l -66.42,95.6 -32.87,48 c -4.86,8.3 -12.23,14.9 -21.43,17.9 -9.05,3 -19.35,2.4 -28.12,-1.8" /><path
         id="path444"
         style="fill:#ff9a6c;fill-opacity:1;fill-rule:nonzero;stroke:none"
         d="m 7291.13,12976.5 c 0.2,34.3 0.97,68.6 3.2,102.9 2.11,34.2 5,68.4 9.08,102.5 l 0.08,-0.9 c -13.26,44.8 -26.62,89.6 -39.49,134.5 l 0.12,-0.3 c -16.64,36.9 -33.34,73.8 -49.65,110.8 l -24.51,55.5 c -4.5,9.3 -5.44,20.4 -2.04,30.1 3.24,9.7 10.52,17.9 19.69,22.2 -9.03,-4.6 -15.89,-13 -18.73,-22.6 -2.97,-9.6 -1.74,-20 2.91,-28.8 l 25.74,-55 c 17.19,-36.6 33.99,-73.5 50.86,-110.2 l 0.06,-0.2 0.06,-0.1 c 13.37,-44.8 26.25,-89.8 39.24,-134.7 l 0.13,-0.4 -0.05,-0.5 c -4.1,-33.9 -7.77,-68 -10.51,-102.1 -2.61,-34.2 -5,-68.4 -6.19,-102.7" /><path
         id="path446"
         style="fill:#1b1a2e;fill-opacity:1;fill-rule:nonzero;stroke:none"
         d="M 16105.8,2888 H 4285.16 c -8.28,0 -15,6.8 -15,15 0,8.3 6.72,15 15,15 H 16105.8 c 8.2,0 15,-6.7 15,-15 0,-8.2 -6.8,-15 -15,-15" /><path
         id="path448"
         style="fill:#ffffff;fill-opacity:1;fill-rule:nonzero;stroke:none"
         d="m 5245.49,14277.7 c 177.69,236.8 513.67,284.7 750.43,107 178.22,-133.8 249.42,-357.2 197.95,-560.5 l 191.09,-149.7 -282.08,-40.2 c -177.68,-236.8 -513.66,-284.7 -750.42,-107 -236.77,177.7 -284.66,513.7 -106.97,750.4" /><path
         id="path450"
         style="fill:#1f4068;fill-opacity:1;fill-rule:nonzero;stroke:none"
         d="m 5768.14,14152.8 c 0,16.1 -4.31,31.4 -11.74,44.5 h -0.01 c 9.77,5.1 16.53,15.3 16.53,27.1 v 21.2 c 0,7.6 -6.16,13.8 -13.76,13.8 -7.6,0 -13.76,-6.2 -13.76,-13.8 v -21.2 c 0,-1.8 -1.43,-3.2 -3.19,-3.2 h -5.69 -0.03 c -15.68,13.4 -36.05,21.5 -58.34,21.5 -22.2,0 -42.57,-8.1 -58.25,-21.5 h -0.04 -5.73 c -1.77,0 -3.19,1.4 -3.19,3.2 v 21.2 c 0,7.6 -6.16,13.8 -13.76,13.8 -7.6,0 -13.77,-6.2 -13.77,-13.8 v -21.2 c 0,-11.9 6.8,-22 16.62,-27.2 h -0.04 c -7.43,-13.1 -11.74,-28.3 -11.74,-44.4 0,-10.8 1.93,-21 5.32,-30.6 25.78,14 54.4,21.8 84.58,21.8 30.18,0 58.8,-7.8 84.58,-21.8 3.49,9.6 5.41,19.8 5.41,30.6" /><path
         id="path452"
         style="fill:#1f4068;fill-opacity:1;fill-rule:nonzero;stroke:none"
         d="m 5558.11,14059.2 h -68.09 c -19.86,0 -36.03,16.2 -36.03,36.1 v 62.4 c 0,7.6 -6.15,13.8 -13.76,13.8 -7.6,0 -13.76,-6.2 -13.76,-13.8 v -62.4 c 0,-35.1 28.52,-63.6 63.55,-63.6 h 47.62 -0.03 c -14.31,-22.9 -24.68,-49.5 -30,-78.3 h -122.65 c -7.52,0 -13.76,-6.1 -13.76,-13.7 0,-7.6 6.24,-13.8 13.76,-13.8 h 118.98 c -0.46,-6.1 -0.73,-12.5 -0.73,-18.8 0,-20.6 2.47,-40.6 7.24,-59.5 h -20.43 c -35.03,0 -63.55,-28.5 -63.55,-63.6 v -62.4 c 0,-7.6 6.16,-13.8 13.76,-13.8 7.61,0 13.76,6.2 13.76,13.8 v 62.4 c 0,19.9 16.17,36.1 36.03,36.1 h 29.05 l 0.01,-0.1 c 25.78,-67.5 80.54,-115.6 145.31,-121.6 v 227.5 27.5 110.5 51.8 c -20.37,-1.8 -39.81,-7.9 -57.61,-17.5 -18.15,-9.6 -34.55,-22.9 -48.67,-39" /><path
         id="path454"
         style="fill:#1f4068;fill-opacity:1;fill-rule:nonzero;stroke:none"
         d="m 5971.34,13953.4 h -122.65 c -5.33,28.8 -15.69,55.4 -30,78.3 h 47.61 c 35.04,0 63.57,28.5 63.57,63.6 v 62.4 c 0,7.6 -6.14,13.8 -13.76,13.8 -7.61,0 -13.76,-6.2 -13.76,-13.8 v -62.4 c 0,-19.9 -16.14,-36.1 -36.05,-36.1 h -68.07 c -14.12,16.1 -30.54,29.3 -48.62,38.9 -17.79,9.6 -37.24,15.8 -57.7,17.6 v -51.8 -110.5 -27.5 -227.5 c 64.76,6 119.53,54.1 145.31,121.6 l 0.01,0.1 h 29.08 c 19.86,0 36.02,-16.2 36.02,-36.1 v -62.4 c 0,-7.6 6.16,-13.8 13.76,-13.8 7.61,0 13.76,6.2 13.76,13.8 v 62.4 c 0,35.1 -28.5,63.6 -63.54,63.6 h -20.47 c 4.78,18.9 7.25,38.9 7.25,59.5 0,6.3 -0.27,12.7 -0.73,18.8 h 118.98 c 7.62,0 13.76,6.2 13.76,13.8 0,7.6 -6.14,13.7 -13.76,13.7" /><path
         id="path456"
         style="fill:#1f4068;fill-opacity:1;fill-rule:nonzero;stroke:none"
         d="m 5675.3,14487.1 c -25.23,0 -50.62,-1.8 -76.04,-5.4 -140.42,-20 -264.63,-93.5 -349.77,-207 -85.13,-113.4 -121,-253.2 -100.98,-393.6 20.01,-140.4 93.51,-264.7 206.95,-349.8 234.16,-175.7 567.67,-128.2 743.42,106 l 1.25,1.6 272.51,38.9 -184.42,144.5 0.8,3.1 c 52.75,208.4 -24.23,426.3 -196.1,555.3 -92.91,69.7 -203.5,106.4 -317.62,106.4 z m -1.77,-1071.9 c -113.02,0 -226.93,35.2 -324.08,108.1 -115.57,86.8 -190.46,213.3 -210.85,356.4 -20.39,143 16.16,285.5 102.89,401 l 4,-3 -4,3 c 86.74,115.6 213.3,190.5 356.36,210.9 143.06,20.4 285.49,-16.2 401.07,-102.9 174.24,-130.8 252.76,-351.3 200.59,-562.6 l 197.76,-154.9 -291.64,-41.6 c -106.17,-140.3 -268.19,-214.4 -432.1,-214.4" /><path
         id="path458"
         style="fill:#f9a21b;fill-opacity:1;fill-rule:nonzero;stroke:none"
         d="m 5366.03,13632.9 c -3.84,0 -7.68,1.4 -10.61,4.3 -5.86,5.9 -5.86,15.4 0,21.2 l 616.32,616.4 c 5.86,5.8 15.35,5.8 21.21,0 5.86,-5.9 5.86,-15.4 0,-21.2 l -616.32,-616.4 c -2.93,-2.9 -6.77,-4.3 -10.6,-4.3" /></g></g></svg>